<?xml version="1.0" encoding="UTF-8" standalone="no"?>
<svg
   xmlns:dc="http://purl.org/dc/elements/1.1/"
   xmlns:cc="http://creativecommons.org/ns#"
   xmlns:rdf="http://www.w3.org/1999/02/22-rdf-syntax-ns#"
   xmlns:svg="http://www.w3.org/2000/svg"
   xmlns="http://www.w3.org/2000/svg"
   xmlns:sodipodi="http://sodipodi.sourceforge.net/DTD/sodipodi-0.dtd"
   xmlns:inkscape="http://www.inkscape.org/namespaces/inkscape"
   width="275.17273"
   height="137"
   id="svg2"
   version="1.1"
   inkscape:version="1.0 (4035a4fb49, 2020-05-01)"
   sodipodi:docname="attitudeIndicatorGround_movable.svg">
  <defs
     id="defs4">
    <rect
       x="-1413.5994"
       y="1065.3669"
       width="56.999996"
       height="57.999996"
       id="rect1550" />
    <rect
       x="-276.41016"
       y="482.63913"
       width="129.70415"
       height="73.846153"
       id="rect5343" />
    <rect
       x="677.40051"
       y="607.36694"
       width="93.29686"
       height="55.583263"
       id="rect5114" />
    <inkscape:path-effect
       effect="copy_rotate"
       starting_point="0,0"
       origin="387.2,800"
       id="path-effect4508"
       is_visible="true"
       lpeversion="1"
       method="normal"
       num_copies="8"
       starting_angle="0"
       rotation_angle="45"
       gap="-0.01"
       copies_to_360="true"
       mirror_copies="false"
       split_items="false" />
    <inkscape:path-effect
       effect="copy_rotate"
       starting_point="0,0"
       origin="0,0"
       id="path-effect4506"
       is_visible="true"
       lpeversion="1"
       method="normal"
       num_copies="8"
       starting_angle="0"
       rotation_angle="60"
       gap="-0.01"
       copies_to_360="false"
       mirror_copies="false"
       split_items="false" />
    <clipPath
       id="clipEmfPath1"
       clipPathUnits="userSpaceOnUse">
      <path
         id="path839"
         d="M 0,0 H 369.7408 V 348.62189 H 0 Z" />
    </clipPath>
    <pattern
       y="0"
       x="0"
       height="6"
       width="6"
       patternUnits="userSpaceOnUse"
       id="EMFhbasepattern" />
    <rect
       id="rect5114-9"
       height="55.583263"
       width="93.29686"
       y="607.36694"
       x="677.40051" />
    <rect
       id="rect5142"
       height="55.583263"
       width="93.29686"
       y="607.36694"
       x="677.40051" />
    <rect
       id="rect5114-0"
       height="55.583263"
       width="93.29686"
       y="607.36694"
       x="677.40051" />
    <rect
       id="rect5171"
       height="55.583263"
       width="93.29686"
       y="607.36694"
       x="677.40051" />
    <rect
       x="677.40051"
       y="607.36694"
       width="93.29686"
       height="55.583263"
       id="rect5114-0-3" />
    <rect
       x="677.40051"
       y="607.36694"
       width="93.29686"
       height="55.583263"
       id="rect5200" />
    <rect
       id="rect5114-0-3-3"
       height="55.583263"
       width="93.29686"
       y="607.36694"
       x="677.40051" />
    <rect
       id="rect5230"
       height="55.583263"
       width="93.29686"
       y="607.36694"
       x="677.40051" />
    <rect
       x="677.40051"
       y="607.36694"
       width="93.29686"
       height="55.583263"
       id="rect5114-0-3-3-5" />
    <rect
       x="677.40051"
       y="607.36694"
       width="93.29686"
       height="55.583263"
       id="rect5260" />
    <rect
       id="rect5114-0-3-3-5-0"
       height="55.583263"
       width="93.29686"
       y="607.36694"
       x="677.40051" />
    <rect
       id="rect5290"
       height="55.583263"
       width="93.29686"
       y="607.36694"
       x="677.40051" />
    <rect
       x="677.40051"
       y="607.36694"
       width="93.29686"
       height="55.583263"
       id="rect5114-0-3-3-5-0-2" />
    <rect
       x="677.40051"
       y="607.36694"
       width="93.29686"
       height="55.583263"
       id="rect5320" />
    <rect
       id="rect5343-3"
       height="49.298981"
       width="56.971786"
       y="482.63913"
       x="-276.41016" />
    <rect
       id="rect5356"
       height="73.846153"
       width="129.70415"
       y="482.63913"
       x="-276.41016" />
    <rect
       x="-276.41016"
       y="482.63913"
       width="30.502607"
       height="45.08865"
       id="rect5343-3-1" />
    <rect
       x="-276.41016"
       y="482.63913"
       width="56.971786"
       height="49.298981"
       id="rect5385" />
    <rect
       id="rect5343-3-1-1"
       height="47.361534"
       width="35.048378"
       y="482.63913"
       x="-276.41016" />
    <rect
       id="rect5415"
       height="45.08865"
       width="30.502607"
       y="482.63913"
       x="-276.41016" />
    <rect
       id="rect5343-9"
       height="73.846153"
       width="129.70415"
       y="482.63913"
       x="-276.41016" />
    <rect
       id="rect5114-1"
       height="55.583263"
       width="93.29686"
       y="607.36694"
       x="677.40051" />
    <clipPath
       clipPathUnits="userSpaceOnUse"
       id="clipEmfPath1-7">
      <path
         d="M 0,0 H 369.7408 V 348.62189 H 0 Z"
         id="path839-3" />
    </clipPath>
    <pattern
       id="EMFhbasepattern-4"
       patternUnits="userSpaceOnUse"
       width="6"
       height="6"
       x="0"
       y="0" />
    <rect
       x="677.40051"
       y="607.36694"
       width="93.29686"
       height="55.583263"
       id="rect5114-9-3" />
    <rect
       x="677.40051"
       y="607.36694"
       width="93.29686"
       height="55.583263"
       id="rect5142-8" />
    <rect
       x="677.40051"
       y="607.36694"
       width="93.29686"
       height="55.583263"
       id="rect5114-0-7" />
    <rect
       x="677.40051"
       y="607.36694"
       width="93.29686"
       height="55.583263"
       id="rect5171-7" />
    <rect
       id="rect5114-0-3-5"
       height="55.583263"
       width="93.29686"
       y="607.36694"
       x="677.40051" />
    <rect
       id="rect5200-4"
       height="55.583263"
       width="93.29686"
       y="607.36694"
       x="677.40051" />
    <rect
       x="677.40051"
       y="607.36694"
       width="93.29686"
       height="55.583263"
       id="rect5114-0-3-3-1" />
    <rect
       x="677.40051"
       y="607.36694"
       width="93.29686"
       height="55.583263"
       id="rect5230-1" />
    <rect
       id="rect5114-0-3-3-5-2"
       height="55.583263"
       width="93.29686"
       y="607.36694"
       x="677.40051" />
    <rect
       id="rect5260-1"
       height="55.583263"
       width="93.29686"
       y="607.36694"
       x="677.40051" />
    <rect
       x="677.40051"
       y="607.36694"
       width="93.29686"
       height="55.583263"
       id="rect5114-0-3-3-5-0-9" />
    <rect
       x="677.40051"
       y="607.36694"
       width="93.29686"
       height="55.583263"
       id="rect5290-6" />
    <rect
       id="rect5114-0-3-3-5-0-2-2"
       height="55.583263"
       width="93.29686"
       y="607.36694"
       x="677.40051" />
    <rect
       id="rect5320-6"
       height="55.583263"
       width="93.29686"
       y="607.36694"
       x="677.40051" />
    <rect
       x="-276.41016"
       y="482.63913"
       width="56.971786"
       height="49.298981"
       id="rect5343-3-8" />
    <rect
       x="-276.41016"
       y="482.63913"
       width="129.70415"
       height="73.846153"
       id="rect5356-2" />
    <rect
       id="rect5343-3-1-10"
       height="45.08865"
       width="30.502607"
       y="482.63913"
       x="-276.41016" />
    <rect
       id="rect5385-8"
       height="49.298981"
       width="56.971786"
       y="482.63913"
       x="-276.41016" />
    <rect
       x="-276.41016"
       y="482.63913"
       width="35.048378"
       height="47.361534"
       id="rect5343-3-1-1-6" />
    <rect
       x="-276.41016"
       y="482.63913"
       width="30.502607"
       height="45.08865"
       id="rect5415-4" />
    <defs
       id="id-225922f2-58e9-4b3a-aac4-2fcacdac1735">
      <g
         id="id-fd36081d-525c-4059-98fa-c7f031840936">
        <symbol
           overflow="visible"
           id="id-52f9bffe-7f82-4db6-b1fe-eb7c07201ac5">
          <path
             style="stroke:none"
             d=""
             id="id-ea472332-d503-456c-af13-dc1c708332dc" />
        </symbol>
        <symbol
           overflow="visible"
           id="id-41ddf293-1693-476e-9510-44fc7461858c">
          <path
             style="stroke:none"
             d="M 4.828125,-4.09375 4,-6.078125 c -0.03125,-0.078125 -0.046875,-0.125 -0.046875,-0.125 0,-0.0625 0.15625,-0.25 0.578125,-0.296875 0.109375,-0.015625 0.203125,-0.015625 0.203125,-0.1875 0,-0.125 -0.125,-0.125 -0.15625,-0.125 -0.40625,0 -0.828125,0.03125 -1.25,0.03125 -0.25,0 -0.859375,-0.03125 -1.109375,-0.03125 -0.0625,0 -0.1875,0 -0.1875,0.203125 C 2.03125,-6.5 2.140625,-6.5 2.265625,-6.5 c 0.59375,0 0.65625,0.09375 0.75,0.3125 l 1.171875,2.78125 -2.109375,2.265625 -0.125,0.109375 C 1.46875,-0.5 1,-0.34375 0.484375,-0.3125 c -0.125,0.015625 -0.21875,0.015625 -0.21875,0.203125 0,0.015625 0,0.109375 0.140625,0.109375 0.296875,0 0.625,-0.03125 0.921875,-0.03125 C 1.703125,-0.03125 2.09375,0 2.453125,0 2.515625,0 2.625,0 2.625,-0.203125 2.625,-0.296875 2.53125,-0.3125 2.515625,-0.3125 c -0.09375,0 -0.40625,-0.03125 -0.40625,-0.3125 0,-0.15625 0.15625,-0.3125 0.265625,-0.4375 L 3.40625,-2.140625 4.296875,-3.125 l 1,2.390625 c 0.046875,0.109375 0.0625,0.109375 0.0625,0.140625 0,0.078125 -0.203125,0.25 -0.578125,0.28125 C 4.671875,-0.296875 4.578125,-0.296875 4.578125,-0.125 4.578125,0 4.6875,0 4.71875,0 5,0 5.703125,-0.03125 5.984375,-0.03125 6.234375,-0.03125 6.84375,0 7.09375,0 c 0.0625,0 0.1875,0 0.1875,-0.1875 0,-0.125 -0.109375,-0.125 -0.1875,-0.125 -0.65625,0 -0.6875,-0.03125 -0.859375,-0.4375 C 5.859375,-1.671875 5.1875,-3.234375 4.953125,-3.828125 5.625,-4.53125 6.671875,-5.71875 7,-5.984375 7.28125,-6.234375 7.671875,-6.46875 8.265625,-6.5 c 0.125,-0.015625 0.21875,-0.015625 0.21875,-0.203125 0,0 0,-0.109375 -0.125,-0.109375 -0.296875,0 -0.640625,0.03125 -0.9375,0.03125 -0.375,0 -0.75,-0.03125 -1.109375,-0.03125 -0.0625,0 -0.1875,0 -0.1875,0.203125 0,0.0625 0.046875,0.09375 0.109375,0.109375 0.09375,0.015625 0.40625,0.03125 0.40625,0.3125 0,0.140625 -0.109375,0.265625 -0.1875,0.359375 z m 0,0"
             id="id-d5959579-292d-457e-94aa-39005139e8a1" />
        </symbol>
        <symbol
           overflow="visible"
           id="id-e9c65cbd-eec0-4114-89be-dd9b164a2534">
          <path
             style="stroke:none"
             d="M 5.953125,-5.671875 6.09375,-5.8125 C 6.390625,-6.109375 6.71875,-6.453125 7.390625,-6.5 7.5,-6.515625 7.59375,-6.515625 7.59375,-6.6875 c 0,-0.078125 -0.046875,-0.125 -0.125,-0.125 -0.265625,0 -0.546875,0.03125 -0.8125,0.03125 -0.34375,0 -0.6875,-0.03125 -1,-0.03125 -0.0625,0 -0.1875,0 -0.1875,0.1875 0,0.109375 0.09375,0.125 0.140625,0.125 0.078125,0 0.359375,0.015625 0.359375,0.234375 0,0.171875 -0.234375,0.421875 -0.265625,0.46875 L 3.390625,-3.125 2.296875,-6.09375 C 2.234375,-6.234375 2.234375,-6.25 2.234375,-6.265625 2.234375,-6.5 2.71875,-6.5 2.828125,-6.5 c 0.125,0 0.234375,0 0.234375,-0.203125 0,-0.109375 -0.125,-0.109375 -0.15625,-0.109375 -0.28125,0 -0.96875,0.03125 -1.25,0.03125 -0.25,0 -0.875,-0.03125 -1.125,-0.03125 -0.046875,0 -0.1875,0 -0.1875,0.203125 C 0.34375,-6.5 0.453125,-6.5 0.578125,-6.5 c 0.59375,0 0.640625,0.09375 0.734375,0.34375 L 2.53125,-2.875 c 0.015625,0.03125 0.046875,0.140625 0.046875,0.15625 0,0.03125 -0.40625,1.640625 -0.453125,1.828125 C 2,-0.34375 1.984375,-0.3125 1.1875,-0.3125 c -0.1875,0 -0.265625,0 -0.265625,0.203125 C 0.921875,0 1.03125,0 1.0625,0 c 0.265625,0 0.96875,-0.03125 1.25,-0.03125 0.28125,0 1,0.03125 1.28125,0.03125 0.0625,0 0.1875,0 0.1875,-0.203125 C 3.78125,-0.3125 3.6875,-0.3125 3.5,-0.3125 c -0.015625,0 -0.203125,0 -0.375,-0.015625 C 2.90625,-0.34375 2.84375,-0.375 2.84375,-0.484375 c 0,-0.078125 0.09375,-0.421875 0.140625,-0.625 l 0.359375,-1.40625 c 0.046875,-0.203125 0.0625,-0.21875 0.140625,-0.3125 z m 0,0"
             id="id-fd37aebb-afee-4180-825d-3fc951864946" />
        </symbol>
      </g>
    </defs>
    <rect
       id="rect5343-7"
       height="73.846153"
       width="129.70415"
       y="482.63913"
       x="-276.41016" />
    <rect
       id="rect5114-17"
       height="55.583263"
       width="93.29686"
       y="607.36694"
       x="677.40051" />
    <clipPath
       clipPathUnits="userSpaceOnUse"
       id="clipEmfPath1-1">
      <path
         d="M 0,0 H 369.7408 V 348.62189 H 0 Z"
         id="path839-38" />
    </clipPath>
    <pattern
       id="EMFhbasepattern-5"
       patternUnits="userSpaceOnUse"
       width="6"
       height="6"
       x="0"
       y="0" />
    <rect
       x="677.40051"
       y="607.36694"
       width="93.29686"
       height="55.583263"
       id="rect5114-9-9" />
    <rect
       x="677.40051"
       y="607.36694"
       width="93.29686"
       height="55.583263"
       id="rect5142-9" />
    <rect
       x="677.40051"
       y="607.36694"
       width="93.29686"
       height="55.583263"
       id="rect5114-0-6" />
    <rect
       x="677.40051"
       y="607.36694"
       width="93.29686"
       height="55.583263"
       id="rect5171-9" />
    <rect
       id="rect5114-0-3-1"
       height="55.583263"
       width="93.29686"
       y="607.36694"
       x="677.40051" />
    <rect
       id="rect5200-42"
       height="55.583263"
       width="93.29686"
       y="607.36694"
       x="677.40051" />
    <rect
       x="677.40051"
       y="607.36694"
       width="93.29686"
       height="55.583263"
       id="rect5114-0-3-3-9" />
    <rect
       x="677.40051"
       y="607.36694"
       width="93.29686"
       height="55.583263"
       id="rect5230-3" />
    <rect
       id="rect5114-0-3-3-5-7"
       height="55.583263"
       width="93.29686"
       y="607.36694"
       x="677.40051" />
    <rect
       id="rect5260-7"
       height="55.583263"
       width="93.29686"
       y="607.36694"
       x="677.40051" />
    <rect
       x="677.40051"
       y="607.36694"
       width="93.29686"
       height="55.583263"
       id="rect5114-0-3-3-5-0-6" />
    <rect
       x="677.40051"
       y="607.36694"
       width="93.29686"
       height="55.583263"
       id="rect5290-5" />
    <rect
       id="rect5114-0-3-3-5-0-2-0"
       height="55.583263"
       width="93.29686"
       y="607.36694"
       x="677.40051" />
    <rect
       id="rect5320-0"
       height="55.583263"
       width="93.29686"
       y="607.36694"
       x="677.40051" />
    <rect
       x="-276.41016"
       y="482.63913"
       width="56.971786"
       height="49.298981"
       id="rect5343-3-2" />
    <rect
       x="-276.41016"
       y="482.63913"
       width="129.70415"
       height="73.846153"
       id="rect5356-0" />
    <rect
       id="rect5343-3-1-4"
       height="45.08865"
       width="30.502607"
       y="482.63913"
       x="-276.41016" />
    <rect
       id="rect5385-2"
       height="49.298981"
       width="56.971786"
       y="482.63913"
       x="-276.41016" />
    <rect
       x="-276.41016"
       y="482.63913"
       width="35.048378"
       height="47.361534"
       id="rect5343-3-1-1-7" />
    <rect
       x="-276.41016"
       y="482.63913"
       width="30.502607"
       height="45.08865"
       id="rect5415-9" />
    <rect
       x="-276.41016"
       y="482.63913"
       width="129.70415"
       height="73.846153"
       id="rect5343-39" />
    <rect
       x="677.40051"
       y="607.36694"
       width="93.29686"
       height="55.583263"
       id="rect5114-4" />
    <clipPath
       id="clipEmfPath1-6"
       clipPathUnits="userSpaceOnUse">
      <path
         id="path839-1"
         d="M 0,0 H 369.7408 V 348.62189 H 0 Z" />
    </clipPath>
    <pattern
       y="0"
       x="0"
       height="6"
       width="6"
       patternUnits="userSpaceOnUse"
       id="EMFhbasepattern-3" />
    <rect
       id="rect5114-9-7"
       height="55.583263"
       width="93.29686"
       y="607.36694"
       x="677.40051" />
    <rect
       id="rect5142-5"
       height="55.583263"
       width="93.29686"
       y="607.36694"
       x="677.40051" />
    <rect
       id="rect5114-0-31"
       height="55.583263"
       width="93.29686"
       y="607.36694"
       x="677.40051" />
    <rect
       id="rect5171-4"
       height="55.583263"
       width="93.29686"
       y="607.36694"
       x="677.40051" />
    <rect
       x="677.40051"
       y="607.36694"
       width="93.29686"
       height="55.583263"
       id="rect5114-0-3-35" />
    <rect
       x="677.40051"
       y="607.36694"
       width="93.29686"
       height="55.583263"
       id="rect5200-3" />
    <rect
       id="rect5114-0-3-3-3"
       height="55.583263"
       width="93.29686"
       y="607.36694"
       x="677.40051" />
    <rect
       id="rect5230-30"
       height="55.583263"
       width="93.29686"
       y="607.36694"
       x="677.40051" />
    <rect
       x="677.40051"
       y="607.36694"
       width="93.29686"
       height="55.583263"
       id="rect5114-0-3-3-5-24" />
    <rect
       x="677.40051"
       y="607.36694"
       width="93.29686"
       height="55.583263"
       id="rect5260-6" />
    <rect
       id="rect5114-0-3-3-5-0-8"
       height="55.583263"
       width="93.29686"
       y="607.36694"
       x="677.40051" />
    <rect
       id="rect5290-8"
       height="55.583263"
       width="93.29686"
       y="607.36694"
       x="677.40051" />
    <rect
       x="677.40051"
       y="607.36694"
       width="93.29686"
       height="55.583263"
       id="rect5114-0-3-3-5-0-2-00" />
    <rect
       x="677.40051"
       y="607.36694"
       width="93.29686"
       height="55.583263"
       id="rect5320-2" />
    <rect
       id="rect5343-3-4"
       height="49.298981"
       width="56.971786"
       y="482.63913"
       x="-276.41016" />
    <rect
       id="rect5356-5"
       height="73.846153"
       width="129.70415"
       y="482.63913"
       x="-276.41016" />
    <rect
       x="-276.41016"
       y="482.63913"
       width="30.502607"
       height="45.08865"
       id="rect5343-3-1-2" />
    <rect
       x="-276.41016"
       y="482.63913"
       width="56.971786"
       height="49.298981"
       id="rect5385-0" />
    <rect
       id="rect5343-3-1-1-1"
       height="47.361534"
       width="35.048378"
       y="482.63913"
       x="-276.41016" />
    <rect
       id="rect5415-5"
       height="45.08865"
       width="30.502607"
       y="482.63913"
       x="-276.41016" />
    <rect
       id="rect5343-9-8"
       height="73.846153"
       width="129.70415"
       y="482.63913"
       x="-276.41016" />
    <rect
       id="rect5114-1-0"
       height="55.583263"
       width="93.29686"
       y="607.36694"
       x="677.40051" />
    <clipPath
       clipPathUnits="userSpaceOnUse"
       id="clipEmfPath1-7-7">
      <path
         d="M 0,0 H 369.7408 V 348.62189 H 0 Z"
         id="path839-3-1" />
    </clipPath>
    <pattern
       id="EMFhbasepattern-4-0"
       patternUnits="userSpaceOnUse"
       width="6"
       height="6"
       x="0"
       y="0" />
    <rect
       x="677.40051"
       y="607.36694"
       width="93.29686"
       height="55.583263"
       id="rect5114-9-3-3" />
    <rect
       x="677.40051"
       y="607.36694"
       width="93.29686"
       height="55.583263"
       id="rect5142-8-3" />
    <rect
       x="677.40051"
       y="607.36694"
       width="93.29686"
       height="55.583263"
       id="rect5114-0-7-3" />
    <rect
       x="677.40051"
       y="607.36694"
       width="93.29686"
       height="55.583263"
       id="rect5171-7-3" />
    <rect
       id="rect5114-0-3-5-3"
       height="55.583263"
       width="93.29686"
       y="607.36694"
       x="677.40051" />
    <rect
       id="rect5200-4-9"
       height="55.583263"
       width="93.29686"
       y="607.36694"
       x="677.40051" />
    <rect
       x="677.40051"
       y="607.36694"
       width="93.29686"
       height="55.583263"
       id="rect5114-0-3-3-1-5" />
    <rect
       x="677.40051"
       y="607.36694"
       width="93.29686"
       height="55.583263"
       id="rect5230-1-0" />
    <rect
       id="rect5114-0-3-3-5-2-5"
       height="55.583263"
       width="93.29686"
       y="607.36694"
       x="677.40051" />
    <rect
       id="rect5260-1-3"
       height="55.583263"
       width="93.29686"
       y="607.36694"
       x="677.40051" />
    <rect
       x="677.40051"
       y="607.36694"
       width="93.29686"
       height="55.583263"
       id="rect5114-0-3-3-5-0-9-5" />
    <rect
       x="677.40051"
       y="607.36694"
       width="93.29686"
       height="55.583263"
       id="rect5290-6-6" />
    <rect
       id="rect5114-0-3-3-5-0-2-2-0"
       height="55.583263"
       width="93.29686"
       y="607.36694"
       x="677.40051" />
    <rect
       id="rect5320-6-5"
       height="55.583263"
       width="93.29686"
       y="607.36694"
       x="677.40051" />
    <rect
       x="-276.41016"
       y="482.63913"
       width="56.971786"
       height="49.298981"
       id="rect5343-3-8-9" />
    <rect
       x="-276.41016"
       y="482.63913"
       width="129.70415"
       height="73.846153"
       id="rect5356-2-8" />
    <rect
       id="rect5343-3-1-10-8"
       height="45.08865"
       width="30.502607"
       y="482.63913"
       x="-276.41016" />
    <rect
       id="rect5385-8-9"
       height="49.298981"
       width="56.971786"
       y="482.63913"
       x="-276.41016" />
    <rect
       x="-276.41016"
       y="482.63913"
       width="35.048378"
       height="47.361534"
       id="rect5343-3-1-1-6-8" />
    <rect
       x="-276.41016"
       y="482.63913"
       width="30.502607"
       height="45.08865"
       id="rect5415-4-5" />
    <rect
       id="rect1550-7"
       height="57.999996"
       width="56.999996"
       y="1065.3669"
       x="-1413.5994" />
    <rect
       id="rect1566"
       height="57.999996"
       width="56.999996"
       y="1065.3669"
       x="-1413.5994" />
    <rect
       x="-1413.5994"
       y="1065.3669"
       width="56.999996"
       height="57.999996"
       id="rect1550-7-7" />
    <rect
       x="-1413.5994"
       y="1065.3669"
       width="56.999996"
       height="57.999996"
       id="rect1595" />
    <rect
       id="rect1550-7-7-0"
       height="57.999996"
       width="56.999996"
       y="1065.3669"
       x="-1413.5994" />
    <rect
       id="rect1625"
       height="57.999996"
       width="56.999996"
       y="1065.3669"
       x="-1413.5994" />
    <rect
       id="rect1550-2"
       height="57.999996"
       width="56.999996"
       y="1065.3669"
       x="-1413.5994" />
    <rect
       id="rect2175"
       height="57.999996"
       width="56.999996"
       y="1065.3669"
       x="-1413.5994" />
    <rect
       x="-1413.5994"
       y="1065.3669"
       width="56.999996"
       height="57.999996"
       id="rect1550-7-6" />
    <rect
       x="-1413.5994"
       y="1065.3669"
       width="56.999996"
       height="57.999996"
       id="rect2178" />
    <rect
       id="rect1550-7-7-8"
       height="57.999996"
       width="56.999996"
       y="1065.3669"
       x="-1413.5994" />
    <rect
       id="rect2181"
       height="57.999996"
       width="56.999996"
       y="1065.3669"
       x="-1413.5994" />
    <rect
       x="-1413.5994"
       y="1065.3669"
       width="56.999996"
       height="57.999996"
       id="rect1550-7-7-0-5" />
    <rect
       x="-1413.5994"
       y="1065.3669"
       width="56.999996"
       height="57.999996"
       id="rect2184" />
  </defs>
  <sodipodi:namedview
     inkscape:snap-nodes="true"
     inkscape:object-paths="true"
     inkscape:object-nodes="true"
     inkscape:snap-global="true"
     inkscape:snap-center="true"
     inkscape:guide-bbox="true"
     showguides="true"
     inkscape:document-rotation="0"
     inkscape:window-maximized="1"
     inkscape:window-y="-8"
     inkscape:window-x="-8"
     inkscape:window-height="1017"
     inkscape:window-width="1920"
     fit-margin-bottom="0"
     fit-margin-right="0"
     fit-margin-left="0"
     fit-margin-top="0"
     showgrid="false"
     inkscape:current-layer="layer1"
     inkscape:document-units="px"
     inkscape:cy="126.50862"
     inkscape:cx="173.29834"
     inkscape:zoom="16"
     inkscape:pageshadow="2"
     inkscape:pageopacity="0.0"
     borderopacity="1.0"
     bordercolor="#666666"
     pagecolor="#ffffff"
     id="base"
     inkscape:snap-midpoints="false"
     inkscape:snap-grids="false"
     inkscape:snap-smooth-nodes="true"
     inkscape:snap-intersection-paths="true">
    <sodipodi:guide
       position="0,137"
       orientation="-1,0"
       id="guide994"
       inkscape:label=""
       inkscape:locked="true"
       inkscape:color="rgb(0,0,255)" />
    <sodipodi:guide
       position="400,0"
       orientation="0,1"
       id="guide5041"
       inkscape:label=""
       inkscape:locked="true"
       inkscape:color="rgb(0,0,255)" />
    <sodipodi:guide
       position="-4e-05,400"
       orientation="0,1"
       id="guide5077"
       inkscape:label=""
       inkscape:locked="true"
       inkscape:color="rgb(0,0,255)" />
    <sodipodi:guide
       position="200,63"
       orientation="0,1"
       id="guide5679"
       inkscape:label=""
       inkscape:locked="true"
       inkscape:color="rgb(0,0,255)" />
    <sodipodi:guide
       inkscape:color="rgb(0,0,255)"
       inkscape:locked="false"
       inkscape:label=""
       id="guide991"
       orientation="-1,0"
       position="275.00001,137" />
    <sodipodi:guide
       inkscape:color="rgb(0,0,255)"
       inkscape:locked="true"
       inkscape:label=""
       id="guide993"
       orientation="0,1"
       position="137.5,68.5" />
    <sodipodi:guide
       inkscape:color="rgb(0,0,255)"
       inkscape:locked="true"
       inkscape:label=""
       id="guide995"
       orientation="0,1"
       position="0,0" />
    <sodipodi:guide
       inkscape:color="rgb(0,0,255)"
       inkscape:locked="true"
       inkscape:label=""
       id="guide997"
       orientation="-1,0"
       position="137.5,68.5" />
    <sodipodi:guide
       inkscape:color="rgb(0,0,255)"
       inkscape:locked="true"
       inkscape:label=""
       id="guide1001"
       orientation="0,1"
       position="137.5,0" />
  </sodipodi:namedview>
  <metadata
     id="metadata7">
    <rdf:RDF>
      <cc:Work
         rdf:about="">
        <dc:format>image/svg+xml</dc:format>
        <dc:type
           rdf:resource="http://purl.org/dc/dcmitype/StillImage" />
        <dc:title />
      </cc:Work>
    </rdf:RDF>
  </metadata>
  <g
     transform="translate(-234.40049,-776.36694)"
     id="layer1"
     inkscape:groupmode="layer"
     inkscape:label="Layer 1">
    <path
       d="m 234.40049,776.36694 h 275.17274 l -0.17275,137 H 234.40049 Z"
       style="fill:#82623c;fill-opacity:1;stroke:none;stroke-width:2;stroke-linecap:round;stroke-linejoin:round;stroke-miterlimit:4;stroke-dasharray:none;stroke-opacity:1"
       id="rect1742-8"
       sodipodi:nodetypes="ccccc" />
  </g>
</svg>
