<?xml version="1.0" encoding="UTF-8" standalone="no"?>
<svg
   xmlns:dc="http://purl.org/dc/elements/1.1/"
   xmlns:cc="http://creativecommons.org/ns#"
   xmlns:rdf="http://www.w3.org/1999/02/22-rdf-syntax-ns#"
   xmlns:svg="http://www.w3.org/2000/svg"
   xmlns="http://www.w3.org/2000/svg"
   xmlns:sodipodi="http://sodipodi.sourceforge.net/DTD/sodipodi-0.dtd"
   xmlns:inkscape="http://www.inkscape.org/namespaces/inkscape"
   width="110"
   height="270"
   viewBox="0 0 29.104164 71.437502"
   version="1.1"
   id="svg1377"
   inkscape:version="1.0 (4035a4fb49, 2020-05-01)"
   sodipodi:docname="attitudeIndicatorPitch_movable.svg">
  <defs
     id="defs1371" />
  <sodipodi:namedview
     inkscape:snap-nodes="true"
     inkscape:snap-others="true"
     id="base"
     pagecolor="#ffffff"
     bordercolor="#666666"
     borderopacity="1.0"
     inkscape:pageopacity="0.0"
     inkscape:pageshadow="2"
     inkscape:zoom="1.5648148"
     inkscape:cx="117.89264"
     inkscape:cy="166.65694"
     inkscape:document-units="px"
     inkscape:current-layer="layer1"
     inkscape:document-rotation="0"
     showgrid="false"
     units="px"
     showguides="true"
     inkscape:guide-bbox="true"
     inkscape:snap-center="true"
     inkscape:snap-grids="false"
     inkscape:snap-object-midpoints="false"
     inkscape:snap-global="true"
     inkscape:window-width="1920"
     inkscape:window-height="1017"
     inkscape:window-x="-8"
     inkscape:window-y="-8"
     inkscape:window-maximized="1">
    <sodipodi:guide
       position="14.552083,35.718749"
       orientation="0,1"
       id="guide2100"
       inkscape:label=""
       inkscape:locked="false"
       inkscape:color="rgb(0,0,255)" />
    <sodipodi:guide
       inkscape:color="rgb(0,0,255)"
       inkscape:locked="false"
       inkscape:label=""
       id="guide1152"
       orientation="0,1"
       position="14.552088,32.40881" />
    <sodipodi:guide
       inkscape:color="rgb(0,0,255)"
       inkscape:locked="false"
       inkscape:label=""
       id="guide1154"
       orientation="0,1"
       position="14.552083,29.10152" />
    <sodipodi:guide
       id="guide1156"
       orientation="0,-1"
       position="14.552087,25.794232" />
    <sodipodi:guide
       id="guide1158"
       orientation="0,-1"
       position="14.552088,39.0234" />
    <sodipodi:guide
       id="guide1551"
       orientation="0,-1"
       position="7.9375035,42.330695" />
    <sodipodi:guide
       id="guide1553"
       orientation="0,-1"
       position="14.552087,45.637983" />
    <sodipodi:guide
       id="guide1555"
       orientation="0,-1"
       position="21.16667,48.945275" />
    <sodipodi:guide
       id="guide1557"
       orientation="0,-1"
       position="21.166665,55.559851" />
    <sodipodi:guide
       id="guide1559"
       orientation="0,-1"
       position="14.552087,58.86715" />
    <sodipodi:guide
       id="guide1561"
       orientation="0,-1"
       position="23.151044,62.174442" />
    <sodipodi:guide
       id="guide1563"
       orientation="0,-1"
       position="5.953126,65.481731" />
    <sodipodi:guide
       inkscape:color="rgb(0,0,255)"
       inkscape:locked="false"
       inkscape:label=""
       id="guide1565"
       orientation="0,1"
       position="14.552083,68.791664" />
    <sodipodi:guide
       inkscape:color="rgb(0,0,255)"
       inkscape:locked="false"
       inkscape:label=""
       id="guide1567"
       orientation="0,1"
       position="14.552083,70.44531" />
    <sodipodi:guide
       id="guide1584"
       orientation="1,0"
       position="14.552087,45.637983" />
    <sodipodi:guide
       id="guide1586"
       orientation="0,-1"
       position="20.902087,22.486946" />
    <sodipodi:guide
       id="guide1588"
       orientation="0,-1"
       position="14.552087,19.179656" />
    <sodipodi:guide
       id="guide1590"
       orientation="0,-1"
       position="20.902081,15.872366" />
    <sodipodi:guide
       id="guide1592"
       orientation="0,-1"
       position="14.552087,12.565065" />
    <sodipodi:guide
       id="guide1594"
       orientation="0,-1"
       position="22.88646,9.2577953" />
    <sodipodi:guide
       id="guide1596"
       orientation="0,-1"
       position="22.886458,5.9504951" />
    <sodipodi:guide
       id="guide1598"
       orientation="0,-1"
       position="22.88646,2.6431949" />
    <sodipodi:guide
       id="guide1600"
       orientation="0,-1"
       position="14.552083,0.99483479" />
    <sodipodi:guide
       id="guide1602"
       orientation="0,-1"
       position="14.552087,52.252567" />
    <sodipodi:guide
       inkscape:color="rgb(0,0,255)"
       inkscape:locked="false"
       inkscape:label=""
       id="guide1941"
       orientation="0,1"
       position="29.104166,0" />
    <sodipodi:guide
       inkscape:color="rgb(0,0,255)"
       inkscape:locked="false"
       inkscape:label=""
       id="guide1943"
       orientation="0,1"
       position="0,71.437498" />
  </sodipodi:namedview>
  <metadata
     id="metadata1374">
    <rdf:RDF>
      <cc:Work
         rdf:about="">
        <dc:format>image/svg+xml</dc:format>
        <dc:type
           rdf:resource="http://purl.org/dc/dcmitype/StillImage" />
        <dc:title />
      </cc:Work>
    </rdf:RDF>
  </metadata>
  <g
     inkscape:label="Layer 1"
     inkscape:groupmode="layer"
     id="layer1"
     transform="translate(-51.744938,-71.600787)">
    <g
       id="g2018">
      <path
         style="fill:#000000;fill-opacity:1;stroke:#000000;stroke-width:0.529167;stroke-linecap:butt;stroke-linejoin:miter;stroke-miterlimit:4;stroke-dasharray:none;stroke-opacity:1"
         d="m 61.534526,104.01488 h 9.525"
         id="path1106" />
      <path
         id="path1106-5"
         d="m 61.534526,97.400304 h 9.525"
         style="fill:#000000;fill-opacity:1;stroke:#000000;stroke-width:0.529167;stroke-linecap:butt;stroke-linejoin:miter;stroke-miterlimit:4;stroke-dasharray:none;stroke-opacity:1" />
      <g
         id="g1513">
        <path
           sodipodi:nodetypes="cc"
           style="fill:#000000;fill-opacity:1;stroke:#000000;stroke-width:0.529167;stroke-linecap:butt;stroke-linejoin:miter;stroke-miterlimit:4;stroke-dasharray:none;stroke-opacity:1"
           d="m 56.242857,100.70759 h 6.879169"
           id="path1106-0" />
        <path
           sodipodi:nodetypes="cc"
           style="fill:#000000;fill-opacity:1;stroke:#000000;stroke-width:0.529167;stroke-linecap:butt;stroke-linejoin:miter;stroke-miterlimit:4;stroke-dasharray:none;stroke-opacity:1"
           d="m 69.472026,100.70759 h 6.879167"
           id="path1106-0-6-5" />
        <path
           d="m 65.218841,101.09478 v -0.26888 h -0.942874 v 0.26888 z"
           style="font-size:13.5499px;line-height:1.25;font-family:KorolevLiU;-inkscape-font-specification:KorolevLiU;letter-spacing:0px;word-spacing:0px;fill:#000000;fill-opacity:1;stroke-width:0.264581"
           id="path4863" />
        <path
           d="m 65.808642,99.961894 v 2.014816 h 0.351338 v -2.527483 h -0.326242 c 0,0.182838 -0.05378,0.243784 -0.326242,0.243784 v 0.340579 c 0.132646,0 0.229444,-0.0143 0.301146,-0.0717 z"
           style="font-size:13.5499px;line-height:1.25;font-family:KorolevLiU;-inkscape-font-specification:KorolevLiU;letter-spacing:0px;word-spacing:0px;fill:#000000;fill-opacity:1;stroke-width:0.264581"
           id="path4865" />
        <path
           d="m 67.472006,102.00897 c 0.494742,0 0.84608,-0.35851 0.84608,-0.87476 v -0.84966 c 0,-0.516252 -0.351338,-0.878344 -0.84608,-0.878344 -0.498327,0 -0.842494,0.362092 -0.842494,0.878344 v 0.84966 c 0,0.51625 0.344167,0.87476 0.842494,0.87476 z m 0,-0.34058 c -0.286805,0 -0.491156,-0.17567 -0.491156,-0.60229 v -0.71343 c 0,-0.430212 0.204351,-0.605882 0.491156,-0.605882 0.283221,0 0.494742,0.17567 0.494742,0.602292 v 0.7206 c 0,0.42304 -0.211521,0.59871 -0.494742,0.59871 z"
           style="font-size:13.5499px;line-height:1.25;font-family:KorolevLiU;-inkscape-font-specification:KorolevLiU;letter-spacing:0px;word-spacing:0px;fill:#000000;fill-opacity:1;stroke-width:0.264581"
           id="path4867" />
      </g>
      <g
         id="g1520">
        <path
           id="path1106-0-6"
           d="m 56.24286,94.093013 h 6.879166"
           style="fill:#000000;fill-opacity:1;stroke:#000000;stroke-width:0.529167;stroke-linecap:butt;stroke-linejoin:miter;stroke-miterlimit:4;stroke-dasharray:none;stroke-opacity:1"
           sodipodi:nodetypes="cc" />
        <path
           sodipodi:nodetypes="cc"
           style="fill:#000000;fill-opacity:1;stroke:#000000;stroke-width:0.529167;stroke-linecap:butt;stroke-linejoin:miter;stroke-miterlimit:4;stroke-dasharray:none;stroke-opacity:1"
           d="m 69.472026,94.093013 h 6.879167"
           id="path1106-0-6-6" />
        <path
           d="m 64.717773,94.481987 v -0.26888 h -0.942874 v 0.26888 z"
           style="font-size:13.5499px;line-height:1.25;font-family:KorolevLiU;-inkscape-font-specification:KorolevLiU;letter-spacing:0px;word-spacing:0px;fill:#000000;fill-opacity:1;stroke-width:0.264581"
           id="path4870" />
        <path
           d="m 65.042279,95.363915 h 1.616869 v -0.340583 h -1.265531 c 0.02511,-0.634558 1.308552,-0.491153 1.308552,-1.434031 0,-0.473228 -0.344167,-0.79947 -0.835324,-0.79947 -0.480398,0 -0.824566,0.336997 -0.824566,0.846077 h 0.344168 c 0,-0.286806 0.146986,-0.50908 0.483983,-0.50908 0.279639,0 0.483987,0.172083 0.483987,0.466059 0,0.734941 -1.312138,0.544933 -1.312138,1.505733 z"
           style="font-size:13.5499px;line-height:1.25;font-family:KorolevLiU;-inkscape-font-specification:KorolevLiU;letter-spacing:0px;word-spacing:0px;fill:#000000;fill-opacity:1;stroke-width:0.264581"
           id="path4872" />
        <path
           d="m 67.937228,95.396181 c 0.494742,0 0.84608,-0.358508 0.84608,-0.874758 v -0.849664 c 0,-0.51625 -0.351338,-0.878343 -0.84608,-0.878343 -0.498324,0 -0.842491,0.362093 -0.842491,0.878343 v 0.849664 c 0,0.51625 0.344167,0.874758 0.842491,0.874758 z m 0,-0.340583 c -0.286805,0 -0.491154,-0.175667 -0.491154,-0.602292 v -0.71343 c 0,-0.43021 0.204349,-0.605878 0.491154,-0.605878 0.283221,0 0.494742,0.175668 0.494742,0.602293 v 0.7206 c 0,0.42304 -0.211521,0.598707 -0.494742,0.598707 z"
           style="font-size:13.5499px;line-height:1.25;font-family:KorolevLiU;-inkscape-font-specification:KorolevLiU;letter-spacing:0px;word-spacing:0px;fill:#000000;fill-opacity:1;stroke-width:0.264581"
           id="path4874" />
      </g>
      <path
         style="fill:#000000;fill-opacity:1;stroke:#000000;stroke-width:0.529167;stroke-linecap:butt;stroke-linejoin:miter;stroke-miterlimit:4;stroke-dasharray:none;stroke-opacity:1"
         d="m 61.534526,90.785721 h 9.525"
         id="path1106-5-2" />
      <g
         id="g1527">
        <path
           sodipodi:nodetypes="cc"
           style="fill:#000000;fill-opacity:1;stroke:#000000;stroke-width:0.529167;stroke-linecap:butt;stroke-linejoin:miter;stroke-miterlimit:4;stroke-dasharray:none;stroke-opacity:1"
           d="m 56.242854,87.478437 h 6.879167"
           id="path1106-0-6-62" />
        <path
           id="path1106-0-6-6-2"
           d="m 69.472021,87.478437 h 6.879166"
           style="fill:#000000;fill-opacity:1;stroke:#000000;stroke-width:0.529167;stroke-linecap:butt;stroke-linejoin:miter;stroke-miterlimit:4;stroke-dasharray:none;stroke-opacity:1"
           sodipodi:nodetypes="cc" />
        <path
           d="m 64.703763,87.863819 v -0.26888 h -0.942874 v 0.26888 z"
           style="font-size:13.5499px;line-height:1.25;font-family:KorolevLiU;-inkscape-font-specification:KorolevLiU;letter-spacing:0px;word-spacing:0px;fill:#000000;fill-opacity:1;stroke-width:0.264581"
           id="path4877" />
        <path
           d="m 66.361918,86.917359 c 0,0.225859 -0.197178,0.390771 -0.43738,0.390771 h -0.329827 v 0.308319 h 0.340582 c 0.276053,0 0.466061,0.114721 0.466061,0.397941 0,0.297564 -0.243785,0.444551 -0.512665,0.444551 -0.293978,0 -0.501912,-0.161327 -0.501912,-0.552101 H 65.02827 c 0,0.562856 0.358507,0.878343 0.860419,0.878343 0.50908,0 0.864002,-0.297561 0.864002,-0.788718 0,-0.315487 -0.200763,-0.491154 -0.412284,-0.552101 0.229447,-0.08246 0.369263,-0.28322 0.369263,-0.566441 0,-0.408699 -0.344167,-0.70626 -0.831736,-0.70626 -0.512667,0 -0.828154,0.319071 -0.828154,0.846076 h 0.340582 c 0,-0.383603 0.197179,-0.53776 0.476817,-0.53776 0.26888,0 0.494739,0.139817 0.494739,0.43738 z"
           style="font-size:13.5499px;line-height:1.25;font-family:KorolevLiU;-inkscape-font-specification:KorolevLiU;letter-spacing:0px;word-spacing:0px;fill:#000000;fill-opacity:1;stroke-width:0.264581"
           id="path4879" />
        <path
           d="m 67.951227,88.778012 c 0.494742,0 0.84608,-0.358507 0.84608,-0.874757 V 87.05359 c 0,-0.516249 -0.351338,-0.878342 -0.84608,-0.878342 -0.498324,0 -0.842491,0.362093 -0.842491,0.878342 v 0.849665 c 0,0.51625 0.344167,0.874757 0.842491,0.874757 z m 0,-0.340582 c -0.286805,0 -0.491153,-0.175667 -0.491153,-0.602292 v -0.713431 c 0,-0.430209 0.204348,-0.605877 0.491153,-0.605877 0.283221,0 0.494742,0.175668 0.494742,0.602292 v 0.720601 c 0,0.42304 -0.211521,0.598707 -0.494742,0.598707 z"
           style="font-size:13.5499px;line-height:1.25;font-family:KorolevLiU;-inkscape-font-specification:KorolevLiU;letter-spacing:0px;word-spacing:0px;fill:#000000;fill-opacity:1;stroke-width:0.264581"
           id="path4881" />
      </g>
      <g
         id="g1549">
        <path
           sodipodi:nodetypes="cc"
           style="fill:#000000;fill-opacity:1;stroke:#000000;stroke-width:0.529167;stroke-linecap:butt;stroke-linejoin:miter;stroke-miterlimit:4;stroke-dasharray:none;stroke-opacity:1"
           d="M 52.274107,80.863846 H 63.122029"
           id="path1106-0-6-4" />
        <path
           id="path1106-0-6-6-4"
           d="M 69.472026,80.863846 H 80.31994"
           style="fill:#000000;fill-opacity:1;stroke:#000000;stroke-width:0.529167;stroke-linecap:butt;stroke-linejoin:miter;stroke-miterlimit:4;stroke-dasharray:none;stroke-opacity:1"
           sodipodi:nodetypes="cc" />
        <path
           d="M 64.683182,81.252821 V 80.98394 h -0.942875 v 0.268881 z"
           style="font-size:13.5499px;line-height:1.25;font-family:KorolevLiU;-inkscape-font-specification:KorolevLiU;letter-spacing:0px;word-spacing:0px;fill:#000000;fill-opacity:1;stroke-width:0.264581"
           id="path4884" />
        <path
           d="m 64.971837,81.199044 v 0.326242 h 1.165151 v 0.609462 h 0.340582 v -0.609462 h 0.326242 V 81.199044 H 66.47757 v -1.591776 h -0.329827 z m 1.165151,0 h -0.810229 l 0.810229,-1.097034 z"
           style="font-size:13.5499px;line-height:1.25;font-family:KorolevLiU;-inkscape-font-specification:KorolevLiU;letter-spacing:0px;word-spacing:0px;fill:#000000;fill-opacity:1;stroke-width:0.264581"
           id="path4886" />
        <path
           d="m 68.007668,82.167014 c 0.494742,0 0.84608,-0.358508 0.84608,-0.874757 v -0.849665 c 0,-0.516249 -0.351338,-0.878342 -0.84608,-0.878342 -0.498324,0 -0.842491,0.362093 -0.842491,0.878342 v 0.849665 c 0,0.516249 0.344167,0.874757 0.842491,0.874757 z m 0,-0.340582 c -0.286805,0 -0.491154,-0.175668 -0.491154,-0.602292 v -0.713431 c 0,-0.43021 0.204349,-0.605877 0.491154,-0.605877 0.283224,0 0.494742,0.175667 0.494742,0.602292 v 0.720601 c 0,0.423039 -0.211518,0.598707 -0.494742,0.598707 z"
           style="font-size:13.5499px;line-height:1.25;font-family:KorolevLiU;-inkscape-font-specification:KorolevLiU;letter-spacing:0px;word-spacing:0px;fill:#000000;fill-opacity:1;stroke-width:0.264581"
           id="path4888" />
      </g>
      <g
         id="g1542"
         transform="translate(6.5e-6,-0.02150377)">
        <path
           sodipodi:nodetypes="cc"
           style="fill:#000000;fill-opacity:1;stroke:#000000;stroke-width:0.529167;stroke-linecap:butt;stroke-linejoin:miter;stroke-miterlimit:4;stroke-dasharray:none;stroke-opacity:1"
           d="M 52.274102,77.556554 H 63.122026"
           id="path1106-0-6-1" />
        <path
           id="path1106-0-6-6-0"
           d="M 69.472026,77.556554 H 80.319935"
           style="fill:#000000;fill-opacity:1;stroke:#000000;stroke-width:0.529167;stroke-linecap:butt;stroke-linejoin:miter;stroke-miterlimit:4;stroke-dasharray:none;stroke-opacity:1"
           sodipodi:nodetypes="cc" />
        <path
           d="m 64.742697,77.961659 v -0.26888 h -0.942878 v 0.26888 z"
           style="font-size:13.5499px;line-height:1.25;font-family:KorolevLiU;-inkscape-font-specification:KorolevLiU;letter-spacing:0px;word-spacing:0px;fill:#000000;fill-opacity:1;stroke-width:0.264581"
           id="path4891" />
        <path
           d="m 65.906109,78.883025 c 0.509082,0 0.842494,-0.347752 0.842494,-0.871175 v -0.139816 c 0,-0.487572 -0.28322,-0.817398 -0.767207,-0.817398 -0.103968,0 -0.204348,0.01434 -0.293976,0.04661 l 0.458891,-0.785133 h -0.380018 l -0.480402,0.838909 c -0.121893,0.215104 -0.218688,0.426623 -0.218688,0.76362 v 0.09321 c 0,0.523423 0.322656,0.871175 0.838906,0.871175 z m 0,-0.340582 c -0.297561,0 -0.487569,-0.157744 -0.487569,-0.552103 v -0.129061 c 0,-0.347753 0.193593,-0.516253 0.487569,-0.516253 0.290391,0 0.491157,0.1685 0.491157,0.516253 v 0.129061 c 0,0.394359 -0.204351,0.552103 -0.491157,0.552103 z"
           style="font-size:13.5499px;line-height:1.25;font-family:KorolevLiU;-inkscape-font-specification:KorolevLiU;letter-spacing:0px;word-spacing:0px;fill:#000000;fill-opacity:1;stroke-width:0.264581"
           id="path4893" />
        <path
           d="m 67.948147,78.875855 c 0.494742,0 0.84608,-0.358508 0.84608,-0.87476 v -0.849662 c 0,-0.516252 -0.351338,-0.878345 -0.84608,-0.878345 -0.498324,0 -0.842494,0.362093 -0.842494,0.878345 v 0.849662 c 0,0.516252 0.34417,0.87476 0.842494,0.87476 z m 0,-0.340582 c -0.286805,0 -0.491156,-0.17567 -0.491156,-0.602295 v -0.71343 c 0,-0.430208 0.204351,-0.605878 0.491156,-0.605878 0.283221,0 0.494742,0.17567 0.494742,0.602293 v 0.7206 c 0,0.42304 -0.211521,0.59871 -0.494742,0.59871 z"
           style="font-size:13.5499px;line-height:1.25;font-family:KorolevLiU;-inkscape-font-specification:KorolevLiU;letter-spacing:0px;word-spacing:0px;fill:#000000;fill-opacity:1;stroke-width:0.264581"
           id="path4895" />
      </g>
      <path
         id="path1106-56"
         d="m 61.534526,110.62947 h 9.525"
         style="fill:#000000;fill-opacity:1;stroke:#000000;stroke-width:0.529167;stroke-linecap:butt;stroke-linejoin:miter;stroke-miterlimit:4;stroke-dasharray:none;stroke-opacity:1" />
      <path
         style="fill:#000000;fill-opacity:1;stroke:#000000;stroke-width:0.529167;stroke-linecap:butt;stroke-linejoin:miter;stroke-miterlimit:4;stroke-dasharray:none;stroke-opacity:1"
         d="m 61.534526,117.24405 h 9.525"
         id="path1106-5-7" />
      <path
         sodipodi:nodetypes="cc"
         style="fill:#000000;fill-opacity:1;stroke:#000000;stroke-width:0.529167;stroke-linecap:butt;stroke-linejoin:miter;stroke-miterlimit:4;stroke-dasharray:none;stroke-opacity:1"
         d="m 56.24286,113.93676 h 7.408333"
         id="path1106-0-1" />
      <path
         id="path1106-0-6-91"
         d="m 56.24286,120.55134 h 7.408333"
         style="fill:#000000;fill-opacity:1;stroke:#000000;stroke-width:0.529167;stroke-linecap:butt;stroke-linejoin:miter;stroke-miterlimit:4;stroke-dasharray:none;stroke-opacity:1"
         sodipodi:nodetypes="cc" />
      <path
         sodipodi:nodetypes="cc"
         style="fill:#000000;fill-opacity:1;stroke:#000000;stroke-width:0.529167;stroke-linecap:butt;stroke-linejoin:miter;stroke-miterlimit:4;stroke-dasharray:none;stroke-opacity:1"
         d="m 68.942859,120.55134 h 7.408334"
         id="path1106-0-6-6-3" />
      <path
         sodipodi:nodetypes="cc"
         style="fill:#000000;fill-opacity:1;stroke:#000000;stroke-width:0.529167;stroke-linecap:butt;stroke-linejoin:miter;stroke-miterlimit:4;stroke-dasharray:none;stroke-opacity:1"
         d="m 68.942859,113.93676 h 7.408334"
         id="path1106-0-6-5-8" />
      <path
         id="path4898"
         style="font-size:13.5499px;line-height:1.25;font-family:KorolevLiU;-inkscape-font-specification:KorolevLiU;letter-spacing:0px;word-spacing:0px;fill:#000000;fill-opacity:1;stroke-width:0.264581"
         d="m 64.426515,121.82226 h 1.616868 v -0.34058 h -1.265531 c 0.02508,-0.63456 1.308552,-0.49115 1.308552,-1.43403 0,-0.47323 -0.344167,-0.79947 -0.835323,-0.79947 -0.480399,0 -0.824566,0.337 -0.824566,0.84608 h 0.344167 c 0,-0.28681 0.146986,-0.50908 0.483984,-0.50908 0.279635,0 0.483986,0.17208 0.483986,0.46606 0,0.73494 -1.312137,0.54493 -1.312137,1.50573 z" />
      <path
         id="path4900"
         style="font-size:13.5499px;line-height:1.25;font-family:KorolevLiU;-inkscape-font-specification:KorolevLiU;letter-spacing:0px;word-spacing:0px;fill:#000000;fill-opacity:1;stroke-width:0.264581"
         d="m 67.321464,121.85453 c 0.494741,0 0.846079,-0.35851 0.846079,-0.87476 v -0.84966 c 0,-0.51625 -0.351338,-0.87834 -0.846079,-0.87834 -0.498327,0 -0.842495,0.36209 -0.842495,0.87834 v 0.84966 c 0,0.51625 0.344168,0.87476 0.842495,0.87476 z m 0,-0.34058 c -0.286806,0 -0.491157,-0.17567 -0.491157,-0.60229 v -0.71344 c 0,-0.43021 0.204351,-0.60587 0.491157,-0.60587 0.28322,0 0.494741,0.17566 0.494741,0.60229 v 0.7206 c 0,0.42304 -0.211521,0.59871 -0.494741,0.59871 z" />
      <path
         id="path1106-5-2-2"
         d="m 61.534526,123.85863 h 9.525"
         style="fill:#000000;fill-opacity:1;stroke:#000000;stroke-width:0.529167;stroke-linecap:butt;stroke-linejoin:miter;stroke-miterlimit:4;stroke-dasharray:none;stroke-opacity:1" />
      <path
         id="path1106-5-0-3"
         d="m 61.534526,130.47322 h 9.525"
         style="fill:#000000;fill-opacity:1;stroke:#000000;stroke-width:0.529167;stroke-linecap:butt;stroke-linejoin:miter;stroke-miterlimit:4;stroke-dasharray:none;stroke-opacity:1" />
      <path
         sodipodi:nodetypes="cc"
         style="fill:#000000;fill-opacity:1;stroke:#000000;stroke-width:0.529167;stroke-linecap:butt;stroke-linejoin:miter;stroke-miterlimit:4;stroke-dasharray:none;stroke-opacity:1"
         d="m 56.242854,127.16592 h 7.408333"
         id="path1106-0-6-62-2" />
      <path
         id="path1106-0-6-6-2-8"
         d="m 68.942854,127.16592 h 7.408333"
         style="fill:#000000;fill-opacity:1;stroke:#000000;stroke-width:0.529167;stroke-linecap:butt;stroke-linejoin:miter;stroke-miterlimit:4;stroke-dasharray:none;stroke-opacity:1"
         sodipodi:nodetypes="cc" />
      <path
         sodipodi:nodetypes="cc"
         style="fill:#000000;fill-opacity:1;stroke:#000000;stroke-width:0.529167;stroke-linecap:butt;stroke-linejoin:miter;stroke-miterlimit:4;stroke-dasharray:none;stroke-opacity:1"
         d="M 52.274107,140.39509 H 63.651195"
         id="path1106-0-6-4-2" />
      <path
         id="path1106-0-6-6-4-3"
         d="M 68.942859,140.39509 H 80.31994"
         style="fill:#000000;fill-opacity:1;stroke:#000000;stroke-width:0.529167;stroke-linecap:butt;stroke-linejoin:miter;stroke-miterlimit:4;stroke-dasharray:none;stroke-opacity:1"
         sodipodi:nodetypes="cc" />
      <path
         id="path4903"
         style="font-size:13.5499px;line-height:1.25;font-family:KorolevLiU;-inkscape-font-specification:KorolevLiU;letter-spacing:0px;word-spacing:0px;fill:#000000;fill-opacity:1;stroke-width:0.264581"
         d="m 65.272922,141.70185 c 0.498327,0 0.864005,-0.26171 0.864005,-0.70985 0,-0.27605 -0.121894,-0.49832 -0.387189,-0.58436 0.225859,-0.0896 0.344167,-0.29039 0.344167,-0.58437 0,-0.44455 -0.340582,-0.69192 -0.820983,-0.69192 -0.483984,0 -0.817396,0.24737 -0.817396,0.68833 0,0.30832 0.118306,0.49474 0.351338,0.59154 -0.254543,0.086 -0.394359,0.29756 -0.394359,0.58078 0,0.44814 0.351337,0.70985 0.860417,0.70985 z m -0.476814,-1.83556 c 0,-0.30115 0.204349,-0.41228 0.476814,-0.41228 0.272468,0 0.476816,0.11113 0.476816,0.41586 0,0.29757 -0.17567,0.39436 -0.476816,0.39436 -0.286806,0 -0.476814,-0.0824 -0.476814,-0.39794 z m 0.397944,0.674 h 0.179253 c 0.26171,0 0.405114,0.15057 0.405114,0.40869 0,0.32266 -0.229444,0.43021 -0.505497,0.43021 -0.279636,0 -0.501909,-0.10755 -0.501909,-0.41945 0,-0.28681 0.168497,-0.41945 0.423039,-0.41945 z" />
      <path
         id="path4905"
         style="font-size:13.5499px;line-height:1.25;font-family:KorolevLiU;-inkscape-font-specification:KorolevLiU;letter-spacing:0px;word-spacing:0px;fill:#000000;fill-opacity:1;stroke-width:0.264581"
         d="m 67.335463,141.69109 c 0.494741,0 0.846079,-0.3585 0.846079,-0.87475 v -0.84967 c 0,-0.51625 -0.351338,-0.87834 -0.846079,-0.87834 -0.498327,0 -0.842494,0.36209 -0.842494,0.87834 v 0.84967 c 0,0.51625 0.344167,0.87475 0.842494,0.87475 z m 0,-0.34058 c -0.286806,0 -0.491157,-0.17567 -0.491157,-0.60229 v -0.71343 c 0,-0.43021 0.204351,-0.60588 0.491157,-0.60588 0.28322,0 0.494741,0.17567 0.494741,0.60229 v 0.7206 c 0,0.42304 -0.211521,0.59871 -0.494741,0.59871 z" />
      <path
         sodipodi:nodetypes="cc"
         style="fill:#000000;fill-opacity:1;stroke:#000000;stroke-width:0.529167;stroke-linecap:butt;stroke-linejoin:miter;stroke-miterlimit:4;stroke-dasharray:none;stroke-opacity:1"
         d="M 52.274102,137.08779 H 63.651193"
         id="path1106-0-6-1-7" />
      <path
         id="path1106-0-6-6-0-4"
         d="M 68.942859,137.08779 H 80.319935"
         style="fill:#000000;fill-opacity:1;stroke:#000000;stroke-width:0.529167;stroke-linecap:butt;stroke-linejoin:miter;stroke-miterlimit:4;stroke-dasharray:none;stroke-opacity:1"
         sodipodi:nodetypes="cc" />
      <path
         id="path4908"
         style="font-size:13.5499px;line-height:1.25;font-family:KorolevLiU;-inkscape-font-specification:KorolevLiU;letter-spacing:0px;word-spacing:0px;fill:#000000;fill-opacity:1;stroke-width:0.264581"
         d="m 65.272422,138.39277 c 0.509082,0 0.842494,-0.34776 0.842494,-0.87118 v -0.13982 c 0,-0.48757 -0.283221,-0.81739 -0.767207,-0.81739 -0.103968,0 -0.204351,0.0143 -0.293976,0.0466 l 0.458888,-0.78513 h -0.380018 l -0.480399,0.83891 c -0.121893,0.2151 -0.218691,0.42662 -0.218691,0.76362 v 0.0932 c 0,0.52342 0.322659,0.87118 0.838909,0.87118 z m 0,-0.34059 c -0.297561,0 -0.487572,-0.15774 -0.487572,-0.5521 v -0.12906 c 0,-0.34775 0.193596,-0.51625 0.487572,-0.51625 0.290391,0 0.491156,0.1685 0.491156,0.51625 v 0.12906 c 0,0.39436 -0.20435,0.5521 -0.491156,0.5521 z" />
      <path
         id="path4910"
         style="font-size:13.5499px;line-height:1.25;font-family:KorolevLiU;-inkscape-font-specification:KorolevLiU;letter-spacing:0px;word-spacing:0px;fill:#000000;fill-opacity:1;stroke-width:0.264581"
         d="m 67.31446,138.3856 c 0.494742,0 0.846079,-0.35851 0.846079,-0.87476 v -0.84967 c 0,-0.51625 -0.351337,-0.87834 -0.846079,-0.87834 -0.498327,0 -0.842494,0.36209 -0.842494,0.87834 v 0.84967 c 0,0.51625 0.344167,0.87476 0.842494,0.87476 z m 0,-0.34059 c -0.286806,0 -0.491157,-0.17567 -0.491157,-0.60229 v -0.71343 c 0,-0.43021 0.204351,-0.60588 0.491157,-0.60588 0.283221,0 0.494742,0.17567 0.494742,0.60229 v 0.7206 c 0,0.42304 -0.211521,0.59871 -0.494742,0.59871 z" />
      <path
         sodipodi:nodetypes="cc"
         style="fill:#000000;fill-opacity:1;stroke:#000000;stroke-width:0.529167;stroke-linecap:butt;stroke-linejoin:miter;stroke-miterlimit:4;stroke-dasharray:none;stroke-opacity:1"
         d="M 52.274107,133.78049 H 63.651195"
         id="path1106-0-6-9-2" />
      <path
         id="path1106-0-6-6-5-6"
         d="M 68.942859,133.78049 H 80.31994"
         style="fill:#000000;fill-opacity:1;stroke:#000000;stroke-width:0.529167;stroke-linecap:butt;stroke-linejoin:miter;stroke-miterlimit:4;stroke-dasharray:none;stroke-opacity:1"
         sodipodi:nodetypes="cc" />
      <path
         id="path4913"
         style="font-size:13.5499px;line-height:1.25;font-family:KorolevLiU;-inkscape-font-specification:KorolevLiU;letter-spacing:0px;word-spacing:0px;fill:#000000;fill-opacity:1;stroke-width:0.264581"
         d="m 64.356072,134.11392 v 0.32624 h 1.165151 v 0.60946 h 0.340582 v -0.60946 h 0.326242 v -0.32624 h -0.326242 v -1.59178 h -0.329827 z m 1.165151,0 h -0.810228 l 0.810228,-1.09704 z" />
      <path
         id="path4915"
         style="font-size:13.5499px;line-height:1.25;font-family:KorolevLiU;-inkscape-font-specification:KorolevLiU;letter-spacing:0px;word-spacing:0px;fill:#000000;fill-opacity:1;stroke-width:0.264581"
         d="m 67.391904,135.08189 c 0.494741,0 0.846079,-0.35851 0.846079,-0.87476 v -0.84966 c 0,-0.51626 -0.351338,-0.87835 -0.846079,-0.87835 -0.498325,0 -0.842492,0.36209 -0.842492,0.87835 v 0.84966 c 0,0.51625 0.344167,0.87476 0.842492,0.87476 z m 0,-0.34058 c -0.286806,0 -0.491154,-0.17567 -0.491154,-0.6023 v -0.71343 c 0,-0.43021 0.204348,-0.60588 0.491154,-0.60588 0.28322,0 0.494741,0.17567 0.494741,0.6023 v 0.7206 c 0,0.42304 -0.211521,0.59871 -0.494741,0.59871 z" />
      <path
         id="path4925"
         style="font-size:13.5499px;line-height:1.25;font-family:KorolevLiU;-inkscape-font-specification:KorolevLiU;letter-spacing:0px;word-spacing:0px;fill:#000000;fill-opacity:1;stroke-width:0.264581"
         d="m 65.192877,113.19108 v 2.01481 h 0.351338 v -2.52748 h -0.326242 c 0,0.18284 -0.05378,0.24378 -0.326242,0.24378 v 0.34059 c 0.132647,0 0.229444,-0.0143 0.301146,-0.0717 z" />
      <path
         id="path4927"
         style="font-size:13.5499px;line-height:1.25;font-family:KorolevLiU;-inkscape-font-specification:KorolevLiU;letter-spacing:0px;word-spacing:0px;fill:#000000;fill-opacity:1;stroke-width:0.264581"
         d="m 66.856241,115.23816 c 0.49474,0 0.846077,-0.35851 0.846077,-0.87477 v -0.84966 c 0,-0.51625 -0.351337,-0.87834 -0.846077,-0.87834 -0.498326,0 -0.842494,0.36209 -0.842494,0.87834 v 0.84966 c 0,0.51626 0.344168,0.87477 0.842494,0.87477 z m 0,-0.34059 c -0.286808,0 -0.491156,-0.17567 -0.491156,-0.60229 v -0.71343 c 0,-0.43021 0.204348,-0.60588 0.491156,-0.60588 0.283221,0 0.49474,0.17567 0.49474,0.6023 v 0.7206 c 0,0.42303 -0.211519,0.5987 -0.49474,0.5987 z" />
      <path
         style="fill:#000000;fill-opacity:1;stroke:#000000;stroke-width:0.529167;stroke-linecap:butt;stroke-linejoin:miter;stroke-miterlimit:4;stroke-dasharray:none;stroke-opacity:1"
         d="m 61.534526,84.171138 h 9.525"
         id="path1106-5-0" />
      <path
         id="path4930"
         style="font-size:13.5499px;line-height:1.25;font-family:KorolevLiU;-inkscape-font-specification:KorolevLiU;letter-spacing:0px;word-spacing:0px;fill:#000000;fill-opacity:1;stroke-width:0.264581"
         d="m 65.746161,126.60487 c 0,0.22586 -0.197178,0.39078 -0.43738,0.39078 h -0.329827 v 0.30831 h 0.340582 c 0.276051,0 0.466061,0.11473 0.466061,0.39795 0,0.29756 -0.243784,0.44455 -0.512667,0.44455 -0.293976,0 -0.501909,-0.16133 -0.501909,-0.5521 h -0.358508 c 0,0.56285 0.358508,0.87834 0.860417,0.87834 0.509082,0 0.864005,-0.29756 0.864005,-0.78872 0,-0.31549 -0.200764,-0.49115 -0.412285,-0.5521 0.229444,-0.0825 0.369263,-0.28322 0.369263,-0.56644 0,-0.4087 -0.344167,-0.70626 -0.831738,-0.70626 -0.512665,0 -0.828152,0.31907 -0.828152,0.84607 h 0.340583 c 0,-0.3836 0.197178,-0.53776 0.476813,-0.53776 0.268883,0 0.494742,0.13982 0.494742,0.43738 z" />
      <path
         id="path4932"
         style="font-size:13.5499px;line-height:1.25;font-family:KorolevLiU;-inkscape-font-specification:KorolevLiU;letter-spacing:0px;word-spacing:0px;fill:#000000;fill-opacity:1;stroke-width:0.264581"
         d="m 67.335471,128.46553 c 0.494741,0 0.846079,-0.35851 0.846079,-0.87476 v -0.84966 c 0,-0.51625 -0.351338,-0.87835 -0.846079,-0.87835 -0.498327,0 -0.842495,0.3621 -0.842495,0.87835 v 0.84966 c 0,0.51625 0.344168,0.87476 0.842495,0.87476 z m 0,-0.34058 c -0.286806,0 -0.491157,-0.17567 -0.491157,-0.6023 v -0.71343 c 0,-0.43021 0.204351,-0.60587 0.491157,-0.60587 0.28322,0 0.494741,0.17566 0.494741,0.60229 v 0.7206 c 0,0.42304 -0.211521,0.59871 -0.494741,0.59871 z" />
      <path
         sodipodi:nodetypes="cc"
         style="fill:none;fill-opacity:1;stroke:#000000;stroke-width:0.529167;stroke-linecap:butt;stroke-linejoin:miter;stroke-miterlimit:4;stroke-dasharray:none;stroke-opacity:1"
         d="m 52.274107,142.04345 h 28.04583"
         id="path1106-0-6-6-4-3-0" />
      <g
         id="g1535">
        <path
           sodipodi:nodetypes="cc"
           style="fill:#000000;fill-opacity:1;stroke:#000000;stroke-width:0.529167;stroke-linecap:butt;stroke-linejoin:miter;stroke-miterlimit:4;stroke-dasharray:none;stroke-opacity:1"
           d="M 52.274107,74.249263 H 63.122029"
           id="path1106-0-6-9" />
        <path
           id="path1106-0-6-6-5"
           d="M 69.472023,74.249263 H 80.319937"
           style="fill:#000000;fill-opacity:1;stroke:#000000;stroke-width:0.529167;stroke-linecap:butt;stroke-linejoin:miter;stroke-miterlimit:4;stroke-dasharray:none;stroke-opacity:1"
           sodipodi:nodetypes="cc" />
        <path
           d="m 64.721689,74.631067 v -0.26888 h -0.942874 v 0.26888 z"
           style="font-size:13.5499px;line-height:1.25;font-family:KorolevLiU;-inkscape-font-specification:KorolevLiU;letter-spacing:0px;word-spacing:0px;fill:#000000;fill-opacity:1;stroke-width:0.264581"
           id="path4918" />
        <path
           d="m 65.906612,75.556016 c 0.498327,0 0.864005,-0.26171 0.864005,-0.709845 0,-0.276051 -0.121894,-0.498324 -0.387189,-0.584367 0.225862,-0.08963 0.344168,-0.290391 0.344168,-0.584367 0,-0.44455 -0.340583,-0.691922 -0.820984,-0.691922 -0.483984,0 -0.817396,0.247372 -0.817396,0.688337 0,0.308317 0.118306,0.494739 0.351338,0.591537 -0.254542,0.08604 -0.394359,0.297561 -0.394359,0.580782 0,0.448135 0.351338,0.709845 0.860417,0.709845 z m -0.476813,-1.83556 c 0,-0.301146 0.204348,-0.412282 0.476813,-0.412282 0.272468,0 0.476816,0.111136 0.476816,0.415867 0,0.297564 -0.175667,0.394359 -0.476816,0.394359 -0.286806,0 -0.476813,-0.08245 -0.476813,-0.397944 z m 0.397944,0.673997 h 0.179252 c 0.26171,0 0.405114,0.150572 0.405114,0.408696 0,0.32266 -0.229444,0.43021 -0.505497,0.43021 -0.279635,0 -0.501909,-0.10755 -0.501909,-0.419454 0,-0.286806 0.168497,-0.419452 0.42304,-0.419452 z"
           style="font-size:13.5499px;line-height:1.25;font-family:KorolevLiU;-inkscape-font-specification:KorolevLiU;letter-spacing:0px;word-spacing:0px;fill:#000000;fill-opacity:1;stroke-width:0.264581"
           id="path4920" />
        <path
           d="m 67.969153,75.545261 c 0.494742,0 0.846079,-0.358508 0.846079,-0.874758 v -0.849664 c 0,-0.51625 -0.351337,-0.878343 -0.846079,-0.878343 -0.498324,0 -0.842494,0.362093 -0.842494,0.878343 v 0.849664 c 0,0.51625 0.34417,0.874758 0.842494,0.874758 z m 0,-0.340583 c -0.286806,0 -0.491157,-0.175667 -0.491157,-0.602292 v -0.71343 c 0,-0.43021 0.204351,-0.605877 0.491157,-0.605877 0.283221,0 0.494742,0.175667 0.494742,0.602292 v 0.7206 c 0,0.42304 -0.211521,0.598707 -0.494742,0.598707 z"
           style="font-size:13.5499px;line-height:1.25;font-family:KorolevLiU;-inkscape-font-specification:KorolevLiU;letter-spacing:0px;word-spacing:0px;fill:#000000;fill-opacity:1;stroke-width:0.264581"
           id="path4922" />
        <path
           sodipodi:nodetypes="cc"
           style="fill:none;fill-opacity:1;stroke:#fffffe;stroke-width:0.529167;stroke-linecap:butt;stroke-linejoin:miter;stroke-miterlimit:4;stroke-dasharray:none;stroke-opacity:1"
           d="m 52.274107,72.595617 h 28.04583"
           id="path1106-0-6-6-4-3-0-8" />
      </g>
      <path
         id="path1106-0-6-6-4-3-0-9"
         d="m 52.274106,72.592975 h 28.04583"
         style="fill:none;fill-opacity:1;stroke:#000000;stroke-width:0.529167;stroke-linecap:butt;stroke-linejoin:miter;stroke-miterlimit:4;stroke-dasharray:none;stroke-opacity:1"
         sodipodi:nodetypes="cc" />
      <path
         id="path1606"
         d="m 52.273587,71.600787 v 0.992188 h 28.046875 v -0.992188 z"
         style="color:#000000;font-style:normal;font-variant:normal;font-weight:normal;font-stretch:normal;font-size:medium;line-height:normal;font-family:sans-serif;font-variant-ligatures:normal;font-variant-position:normal;font-variant-caps:normal;font-variant-numeric:normal;font-variant-alternates:normal;font-variant-east-asian:normal;font-feature-settings:normal;font-variation-settings:normal;text-indent:0;text-align:start;text-decoration:none;text-decoration-line:none;text-decoration-style:solid;text-decoration-color:#000000;letter-spacing:normal;word-spacing:normal;text-transform:none;writing-mode:lr-tb;direction:ltr;text-orientation:mixed;dominant-baseline:auto;baseline-shift:baseline;text-anchor:start;white-space:normal;shape-padding:0;shape-margin:0;inline-size:0;clip-rule:nonzero;display:inline;overflow:visible;visibility:visible;isolation:auto;mix-blend-mode:normal;color-interpolation:sRGB;color-interpolation-filters:linearRGB;solid-color:#000000;solid-opacity:1;vector-effect:none;fill:#000000;fill-opacity:1;fill-rule:nonzero;stroke:none;stroke-width:0.529167;stroke-linecap:butt;stroke-linejoin:miter;stroke-miterlimit:4;stroke-dasharray:none;stroke-dashoffset:0;stroke-opacity:1;color-rendering:auto;image-rendering:auto;shape-rendering:auto;text-rendering:auto;enable-background:accumulate;stop-color:#000000"
         sodipodi:nodetypes="ccccc" />
      <path
         sodipodi:nodetypes="ccccc"
         style="color:#000000;font-style:normal;font-variant:normal;font-weight:normal;font-stretch:normal;font-size:medium;line-height:normal;font-family:sans-serif;font-variant-ligatures:normal;font-variant-position:normal;font-variant-caps:normal;font-variant-numeric:normal;font-variant-alternates:normal;font-variant-east-asian:normal;font-feature-settings:normal;font-variation-settings:normal;text-indent:0;text-align:start;text-decoration:none;text-decoration-line:none;text-decoration-style:solid;text-decoration-color:#000000;letter-spacing:normal;word-spacing:normal;text-transform:none;writing-mode:lr-tb;direction:ltr;text-orientation:mixed;dominant-baseline:auto;baseline-shift:baseline;text-anchor:start;white-space:normal;shape-padding:0;shape-margin:0;inline-size:0;clip-rule:nonzero;display:inline;overflow:visible;visibility:visible;isolation:auto;mix-blend-mode:normal;color-interpolation:sRGB;color-interpolation-filters:linearRGB;solid-color:#000000;solid-opacity:1;vector-effect:none;fill:#000000;fill-opacity:1;fill-rule:nonzero;stroke:none;stroke-width:0.529167;stroke-linecap:butt;stroke-linejoin:miter;stroke-miterlimit:4;stroke-dasharray:none;stroke-dashoffset:0;stroke-opacity:1;color-rendering:auto;image-rendering:auto;shape-rendering:auto;text-rendering:auto;enable-background:accumulate;stop-color:#000000"
         d="m 52.273062,142.04345 v 0.99483 h 28.046875 v -0.99483 z"
         id="path1606-9" />
    </g>
  </g>
</svg>
