<?xml version="1.0" encoding="UTF-8" standalone="no"?>
<svg
   xmlns:dc="http://purl.org/dc/elements/1.1/"
   xmlns:cc="http://creativecommons.org/ns#"
   xmlns:rdf="http://www.w3.org/1999/02/22-rdf-syntax-ns#"
   xmlns:svg="http://www.w3.org/2000/svg"
   xmlns="http://www.w3.org/2000/svg"
   xmlns:sodipodi="http://sodipodi.sourceforge.net/DTD/sodipodi-0.dtd"
   xmlns:inkscape="http://www.inkscape.org/namespaces/inkscape"
   width="5"
   height="12"
   id="svg2"
   version="1.1"
   inkscape:version="1.0 (4035a4fb49, 2020-05-01)"
   sodipodi:docname="kin2DBicCarTop_movable.svg">
  <defs
     id="defs4" />
  <sodipodi:namedview
     inkscape:snap-midpoints="true"
     id="base"
     pagecolor="#ffffff"
     bordercolor="#666666"
     borderopacity="1.0"
     inkscape:pageopacity="0.0"
     inkscape:pageshadow="2"
     inkscape:zoom="45.254834"
     inkscape:cx="5.0544597"
     inkscape:cy="4.4066945"
     inkscape:document-units="px"
     inkscape:current-layer="layer1"
     showgrid="false"
     fit-margin-top="0"
     fit-margin-left="0"
     fit-margin-right="0"
     fit-margin-bottom="0"
     inkscape:window-width="1920"
     inkscape:window-height="1017"
     inkscape:window-x="1912"
     inkscape:window-y="-8"
     inkscape:window-maximized="1"
     inkscape:document-rotation="0"
     showguides="true"
     inkscape:guide-bbox="true"
     inkscape:snap-center="true"
     inkscape:snap-global="true"
     inkscape:object-nodes="false"
     inkscape:object-paths="false"
     inkscape:snap-nodes="false"
     inkscape:snap-grids="true"
     inkscape:snap-to-guides="true">
    <sodipodi:guide
       position="2.5,3.125"
       orientation="0,1"
       id="guide2459"
       inkscape:label="S:"
       inkscape:locked="false"
       inkscape:color="rgb(0,0,255)" />
    <sodipodi:guide
       inkscape:color="rgb(0,0,255)"
       inkscape:locked="false"
       inkscape:label=""
       id="guide1280"
       orientation="0,1"
       position="4.32916,10" />
    <sodipodi:guide
       position="0.67,10"
       orientation="-1,0"
       id="guide1948"
       inkscape:label=""
       inkscape:locked="false"
       inkscape:color="rgb(0,0,255)" />
    <sodipodi:guide
       position="-649.39073,-121.87886"
       orientation="0,-1"
       id="guide2701" />
    <sodipodi:guide
       position="420.10196,300.79504"
       orientation="0,-1"
       id="guide2806" />
    <sodipodi:guide
       position="692.11266,364.85753"
       orientation="1,0"
       id="guide2955" />
    <sodipodi:guide
       position="-1331.8907,851.30864"
       orientation="0,-1"
       id="guide3477" />
    <sodipodi:guide
       position="-2100.7681,999.87854"
       orientation="1,0"
       id="guide3744" />
    <sodipodi:guide
       position="-1838.7681,1089.8784"
       orientation="1,0"
       id="guide3761" />
    <sodipodi:guide
       position="-1727.1116,857.99224"
       orientation="1,0"
       id="guide3855" />
    <sodipodi:guide
       position="-2139.7718,767.5035"
       orientation="1,0"
       id="guide3887" />
    <sodipodi:guide
       position="-920.52053,555.98878"
       orientation="1,0"
       id="guide3919" />
    <sodipodi:guide
       inkscape:color="rgb(0,0,255)"
       inkscape:locked="false"
       inkscape:label=""
       position="2.5,10"
       orientation="-1,0"
       id="guide5066" />
    <sodipodi:guide
       position="4.33,3.12487"
       orientation="-1,0"
       id="guide5409"
       inkscape:label=""
       inkscape:locked="false"
       inkscape:color="rgb(0,0,255)" />
    <sodipodi:guide
       position="-177.29334,74.561709"
       orientation="1,0"
       id="guide6066" />
    <sodipodi:guide
       position="-194.57824,73.214889"
       orientation="0,-1"
       id="guide6085" />
    <sodipodi:guide
       position="-209.70704,73.214889"
       orientation="1,0"
       id="guide6087" />
    <sodipodi:guide
       position="-177.83704,73.214889"
       orientation="1,0"
       id="guide6089" />
  </sodipodi:namedview>
  <metadata
     id="metadata7">
    <rdf:RDF>
      <cc:Work
         rdf:about="">
        <dc:format>image/svg+xml</dc:format>
        <dc:type
           rdf:resource="http://purl.org/dc/dcmitype/StillImage" />
        <dc:title />
      </cc:Work>
    </rdf:RDF>
  </metadata>
  <g
     inkscape:label="Layer 1"
     inkscape:groupmode="layer"
     id="layer1"
     transform="translate(-320.82314,-709.42274)">
    <g
       inkscape:transform-center-y="-2.9963241"
       inkscape:transform-center-x="0.00037370313"
       id="g6255"
       transform="matrix(0.11457707,0,0,0.11457707,299.315,639.73977)">
      <path
         style="fill:#c8c8c8;fill-opacity:1;stroke:#000000;stroke-width:0.410245;stroke-linecap:butt;stroke-linejoin:miter;stroke-miterlimit:4;stroke-dasharray:none;stroke-opacity:1"
         d="m 193.0979,705.60431 c -0.20912,0.055 -1.1844,0.46227 -1.1844,0.46227 -0.009,0.088 0.93664,2.9615 3.26957,3.03833 2.33326,0.077 11.10143,0.35771 14.32984,0.35771 3.22852,0 12.03445,-0.28067 14.3677,-0.35771 2.33326,-0.077 3.27816,-2.94863 3.26947,-3.03833 0,0 -0.97407,-0.41054 -1.1843,-0.46227"
         id="path3081-1-5-9-9-5-0"
         sodipodi:nodetypes="ccscscc" />
      <path
         style="fill:#c8c8c8;fill-opacity:1;stroke:#000000;stroke-width:0.410245;stroke-linecap:butt;stroke-linejoin:miter;stroke-miterlimit:4;stroke-dasharray:none;stroke-opacity:1"
         d="m 191.802,617.84333 c 0,0 -0.61636,-0.45347 -0.61636,-0.74294 0,-0.29057 0.077,-1.94032 0.29057,-2.69184 0.21463,-0.75174 0.33129,-1.26553 1.2872,-1.9356 1.21115,-0.84859 13.71645,-2.96921 16.75005,-2.96921 3.03371,0 15.53901,2.12018 16.75005,2.96921 0.95536,0.67029 1.07202,1.18408 1.28731,1.9356 0.21463,0.75174 0.29057,2.40182 0.29057,2.69184 0,0.29057 -0.61636,0.74294 -0.61636,0.74294"
         id="path2697-5-3-0-6-8-2-3"
         sodipodi:nodetypes="cszscszsc" />
      <path
         sodipodi:nodetypes="ccccccccc"
         style="fill:none;stroke:#000000;stroke-width:0.205123px;stroke-linecap:butt;stroke-linejoin:miter;stroke-opacity:1"
         d="m 226.15806,613.43051 0.73083,28.00051 -0.022,19.99782 c 0,0 -0.0881,29.49827 -0.3445,35.48137 l -0.56133,8.6941 m 0,0 0.76275,0.26966 m -0.27516,-92.4297 -4.14096,0.0991"
         id="path2719-8-2-6-5-5" />
      <path
         sodipodi:nodetypes="cccccssscccczccsssccccc"
         id="path3093-2-7-4-5"
         d="m 209.51291,708.2463 c -3.33044,0 -14.28438,-0.22454 -14.28438,-0.22454 -2.14065,-0.044 -2.13063,-2.41756 -2.13063,-2.41756 l -0.76275,0.26966 -0.71101,-10.48639 c 0,0 -0.53822,-10.20529 -0.53822,-11.20522 0,-1.00049 -0.066,-39.45117 -0.14418,-43.98374 -0.0771,-4.53267 0.91573,-26.37397 1.30536,-26.65177 0.066,-0.044 0.36431,-0.0991 0.36431,-0.0991 0.59215,-0.73633 1.84733,-0.88712 1.84733,-0.88712 l 13.64887,-2.40645 c 0,0 1.07863,-0.23333 1.425,-0.23113 0.3467,0.002 1.35203,0.23113 1.35203,0.23113 l 13.64887,2.40645 c 0,0 1.20026,0.077 1.92019,0.88712 0,0 0.29497,0.055 0.36431,0.0991 0.38963,0.27736 1.3779,22.1191 1.30537,26.65177 -0.077,4.53257 -0.14419,42.98369 -0.14419,43.98374 0,0.99938 -0.53821,11.20522 -0.53821,11.20522 l -0.71102,10.48639 -0.76275,-0.26966 c 0,0 0.01,2.37497 -2.13062,2.41756 0,0 -10.99181,0.22454 -14.32225,0.22454 z"
         style="fill:#ff0000;fill-opacity:1;stroke:#000000;stroke-width:0.205123px;stroke-linecap:butt;stroke-linejoin:miter;stroke-opacity:1" />
      <path
         style="fill:#c8c8c8;fill-opacity:1;stroke:#000000;stroke-width:0.205123px;stroke-linecap:butt;stroke-linejoin:miter;stroke-opacity:1"
         d="m 201.57594,613.38263 c 0,0 0.49419,-0.94545 0.80017,-1.16195 0.30598,-0.21682 6.49556,-1.48675 7.13713,-1.48675 0.64168,0 6.86934,1.26993 7.17488,1.48675 0.30598,0.21683 0.80017,1.16195 0.80017,1.16195 h -0.35881 c 0,0 -7.07274,-1.20619 -7.5972,-1.20619 -0.52391,0 -7.5972,1.20619 -7.5972,1.20619 z"
         id="path3103-6-3-7-2-4"
         sodipodi:nodetypes="czzzcczcc" />
      <path
         id="path2733-0-3-9-2-9-4"
         d="m 208.77273,611.87838 h 1.51823"
         style="fill:none;stroke:#000000;stroke-width:0.205123px;stroke-linecap:butt;stroke-linejoin:miter;stroke-opacity:1"
         sodipodi:nodetypes="cc" />
      <path
         id="path3793-3-5-1"
         d="m 213.7439,707.83774 h -8.46187"
         style="fill:none;stroke:#000000;stroke-width:0.205123px;stroke-linecap:butt;stroke-linejoin:miter;stroke-opacity:1"
         sodipodi:nodetypes="cc" />
      <path
         sodipodi:nodetypes="csc"
         style="fill:none;stroke:#000000;stroke-width:0.246303px;stroke-linecap:butt;stroke-linejoin:miter;stroke-opacity:1"
         d="m 208.41843,707.4393 c 0,0 0.72973,0 1.09404,0 0.36431,0 1.09404,0 1.09404,0"
         id="path2733-0-3-9-0-5-9-0" />
      <path
         id="path2719-8-2-6-4-7-7"
         d="m 192.90551,613.43051 -0.73083,28.00051 0.022,19.99793 c 0,0 0.0881,29.49816 0.3445,35.48126 l 0.56133,8.69421 m 0,0 -0.76274,0.26966 m 0.27516,-92.42981 4.14095,0.0991"
         style="fill:none;stroke:#000000;stroke-width:0.205123px;stroke-linecap:butt;stroke-linejoin:miter;stroke-opacity:1"
         sodipodi:nodetypes="ccccccccc" />
      <path
         id="path2731-9-7-7-3-1-4"
         d="m 193.05938,642.20873 c 0,0 -0.055,40.486 -0.055,40.79374 0,0.30818 0.077,2.66686 0.3269,3.4646 0.25424,0.79797 0.94215,2.71948 1.99425,3.77114 1.05222,1.05112 6.53343,2.35472 14.18401,2.35472 7.65069,0 13.1702,-1.30316 14.22175,-2.35472 1.05112,-1.05221 1.74056,-2.9735 1.99437,-3.77114 0.25425,-0.79796 0.32689,-2.61854 0.32689,-2.92617 0,-0.15409 -0.011,-11.92966 -0.022,-22.08212 -0.011,-10.15245 -0.022,-19.25005 -0.022,-19.25005 m -32.94482,0 c 0,0 -0.51951,-0.95866 2.19711,-2.95336 3.35333,-2.46269 11.51439,-2.45675 14.25642,-2.45675 2.74215,0 10.94096,-0.006 14.29429,2.45675 2.71628,1.99481 2.197,2.95336 2.197,2.95336"
         style="fill:none;stroke:#000000;stroke-width:0.205123px;stroke-linecap:butt;stroke-linejoin:miter;stroke-opacity:1"
         sodipodi:nodetypes="cssscssscccscsc" />
      <path
         id="path2707-4-2-1-4"
         d="m 222.30559,613.70303 -5.25866,-0.32579 c 0,0 -6.86296,-1.19123 -7.53402,-1.19101 -0.67139,0 -7.49616,1.19101 -7.49616,1.19101 l -5.25866,0.32579"
         style="fill:none;stroke:#000000;stroke-width:0.205123px;stroke-linecap:butt;stroke-linejoin:miter;stroke-opacity:1"
         sodipodi:nodetypes="cczcc" />
      <path
         id="path2715-7-2-4-6"
         d="m 223.29991,635.99592 c 0,0 -3.97949,-1.3255 -13.787,-1.37679 -9.8074,0.055 -13.74925,1.37679 -13.74925,1.37679"
         style="fill:none;stroke:#000000;stroke-width:0.205123px;stroke-linecap:butt;stroke-linejoin:miter;stroke-opacity:1"
         sodipodi:nodetypes="ccc" />
      <path
         id="path2717-01-6-59-3"
         d="m 219.51072,635.25486 0.39844,2.50474"
         style="fill:none;stroke:#000000;stroke-width:0.205123px;stroke-linecap:butt;stroke-linejoin:miter;stroke-opacity:1"
         sodipodi:nodetypes="cc" />
      <path
         id="path2721-6-5-97-3"
         d="m 228.12051,640.31188 c 0,0 -0.26635,0.033 -0.514,0.1728 -0.24764,0.14419 -0.71982,0.853 -0.71982,0.853"
         style="fill:none;stroke:#000000;stroke-width:0.205123px;stroke-linecap:butt;stroke-linejoin:miter;stroke-opacity:1"
         sodipodi:nodetypes="czc" />
      <path
         id="path2723-2-4-6-2"
         d="m 226.88911,641.33405 -0.88492,0.87501"
         style="fill:none;stroke:#000000;stroke-width:0.205123px;stroke-linecap:butt;stroke-linejoin:miter;stroke-opacity:1"
         sodipodi:nodetypes="cc" />
      <path
         id="path2725-09-1-9-3"
         d="m 228.02916,661.25946 c 0,0 -0.32359,-0.003 -0.39623,0.022 -0.077,0.022 -0.25865,0.11006 -0.3335,0.14748 -0.077,0.033 -0.42815,0.055 -0.42815,0.055 l -0.8541,-0.006"
         style="fill:none;stroke:#000000;stroke-width:0.205123px;stroke-linecap:butt;stroke-linejoin:miter;stroke-opacity:1"
         sodipodi:nodetypes="czzcc" />
      <path
         id="path2735-3-0-3-0"
         d="m 218.42747,636.05503 c 0,0 -0.8464,-0.11557 -0.8464,-0.011 0,0.0991 -0.12877,0.73083 0.033,0.74404 0.1662,0.011 0.83319,0.077 0.83319,0.077 z"
         style="fill:none;stroke:#000000;stroke-width:0.205123px;stroke-linecap:butt;stroke-linejoin:miter;stroke-opacity:1"
         sodipodi:nodetypes="csscc" />
      <path
         sodipodi:nodetypes="cccccc"
         style="fill:#b4b4b4;fill-opacity:1;stroke:#000000;stroke-width:0.205123px;stroke-linecap:butt;stroke-linejoin:miter;stroke-opacity:1"
         d="m 223.43628,661.75298 c 0,0 -0.11226,12.53029 -0.033,13.27146 0.0771,0.74074 2.64276,7.02289 2.64276,7.02289 v -39.91674 l -2.85067,7.06393 z"
         id="path3087-5-8-9" />
      <path
         sodipodi:nodetypes="cc"
         style="fill:none;stroke:#000000;stroke-width:0.205123px;stroke-linecap:butt;stroke-linejoin:miter;stroke-opacity:1"
         d="m 223.43628,661.75298 2.58079,-0.27516"
         id="path3085-3-2-9" />
      <path
         style="fill:none;stroke:#000000;stroke-width:0.205123px;stroke-linecap:butt;stroke-linejoin:miter;stroke-opacity:1"
         d="m 223.39996,675.02444 2.62867,-0.689"
         id="path3089-0-6-1" />
      <path
         style="fill:none;stroke:#000000;stroke-width:0.205123px;stroke-linecap:butt;stroke-linejoin:miter;stroke-opacity:1"
         d="m 223.28219,690.54419 c 0,0 0.48208,-0.088 0.66149,0.066 0.1805,0.14859 -0.11007,17.41429 -0.11007,17.41429 0,0 -10.9918,0.22453 -14.32224,0.22453 -3.33044,0 -14.28438,-0.22453 -14.28438,-0.22453 0,0 -0.28837,-17.26625 -0.11007,-17.41429 0.17941,-0.14749 0.66149,-0.066 0.66149,-0.066"
         id="path3093-2-9-2"
         sodipodi:nodetypes="czccczc" />
      <path
         sodipodi:nodetypes="ccc"
         style="fill:none;stroke:#000000;stroke-width:0.205123px;stroke-linecap:butt;stroke-linejoin:miter;stroke-opacity:1"
         d="m 225.94795,685.05616 -0.088,11.38275 -0.41054,9.15362"
         id="path3097-6-7-9" />
      <path
         style="fill:none;stroke:#000000;stroke-width:0.205123px;stroke-linecap:butt;stroke-linejoin:miter;stroke-opacity:1"
         d="m 223.29991,635.99592 c 0,0 -4.67466,-18.59252 -4.97645,-19.49648 -0.30158,-0.90363 -0.81008,-2.27063 -1.19442,-3.11681"
         id="path3099-1-7-3"
         sodipodi:nodetypes="czc" />
      <path
         style="fill:none;stroke:#000000;stroke-width:0.205123px;stroke-linecap:butt;stroke-linejoin:miter;stroke-opacity:1"
         d="m 216.76539,635.67145 v 1.15381"
         id="path3105-9-2-4" />
      <path
         id="path3105-4-09-4-9"
         d="m 215.95773,635.59452 v 1.1538"
         style="fill:none;stroke:#000000;stroke-width:0.205123px;stroke-linecap:butt;stroke-linejoin:miter;stroke-opacity:1" />
      <path
         style="fill:none;stroke:#000000;stroke-width:0.205123px;stroke-linecap:butt;stroke-linejoin:miter;stroke-opacity:1"
         d="m 215.17573,635.53046 v 1.15381"
         id="path3105-4-9-9-3-3" />
      <path
         style="fill:none;stroke:#000000;stroke-width:0.205123px;stroke-linecap:butt;stroke-linejoin:miter;stroke-opacity:1"
         d="m 214.40648,635.50482 v 1.1538"
         id="path3105-4-7-0-7-3" />
      <path
         style="fill:none;stroke:#000000;stroke-width:0.205123px;stroke-linecap:butt;stroke-linejoin:miter;stroke-opacity:1"
         d="m 213.62448,635.42788 v 1.15381"
         id="path3105-4-2-0-8-3" />
      <path
         style="fill:none;stroke:#000000;stroke-width:0.205123px;stroke-linecap:butt;stroke-linejoin:miter;stroke-opacity:1"
         d="m 212.93217,635.37659 v 1.15381"
         id="path3105-4-0-7-1-2" />
      <path
         style="fill:none;stroke:#000000;stroke-width:0.205123px;stroke-linecap:butt;stroke-linejoin:miter;stroke-opacity:1"
         d="m 212.30403,635.35095 v 1.1538"
         id="path3105-4-6-2-96-0" />
      <path
         style="fill:none;stroke:#000000;stroke-width:0.205123px;stroke-linecap:butt;stroke-linejoin:miter;stroke-opacity:1"
         d="m 211.58608,635.31242 v 1.15392"
         id="path3105-4-3-1-8-8" />
      <path
         style="fill:none;stroke:#000000;stroke-width:0.205123px;stroke-linecap:butt;stroke-linejoin:miter;stroke-opacity:1"
         d="m 210.80408,635.29966 v 1.1538"
         id="path3105-4-8-2-5-4" />
      <path
         id="path3105-4-8-9-6-1-5"
         d="m 210.05201,635.27401 v 1.15381"
         style="fill:none;stroke:#000000;stroke-width:0.205123px;stroke-linecap:butt;stroke-linejoin:miter;stroke-opacity:1" />
      <path
         sodipodi:nodetypes="ccccsszsscccc"
         style="fill:none;stroke:#000000;stroke-width:0.205123px;stroke-linecap:butt;stroke-linejoin:miter;stroke-opacity:1"
         d="m 195.70973,638.97438 0.055,-2.98253 0.98728,-22.44907 -0.022,-0.47438 c 0,0 5.10247,-1.01259 5.33317,-1.08964 0.23113,-0.077 0.61526,-0.5129 0.76935,-0.56353 0.15409,-0.055 6.08612,-1.51239 6.68454,-1.51283 0.59875,0 6.56854,1.46154 6.7223,1.51283 0.15409,0.055 0.53821,0.48759 0.76935,0.56353 0.23113,0.077 5.33317,1.08964 5.33317,1.08964 l -0.022,0.47438 0.98728,22.44907 0.055,2.98253"
         id="path2705-8-9-7-9-0" />
      <path
         sodipodi:nodetypes="cc"
         style="fill:none;stroke:#000000;stroke-width:0.205123px;stroke-linecap:butt;stroke-linejoin:miter;stroke-opacity:1"
         d="m 199.55296,635.25486 -0.39843,2.50474"
         id="path2717-01-6-5-2-4" />
      <path
         sodipodi:nodetypes="cccccc"
         style="fill:none;stroke:#000000;stroke-width:0.205123px;stroke-linecap:butt;stroke-linejoin:miter;stroke-opacity:1"
         d="m 226.15806,613.43051 0.73193,28.0004 -0.022,19.99782 c 0,0 -0.088,29.49827 -0.3445,35.48126 l -0.56133,8.69421 0.76935,0.26966"
         id="path2719-8-2-9-4-8" />
      <path
         sodipodi:nodetypes="czc"
         style="fill:none;stroke:#000000;stroke-width:0.205123px;stroke-linecap:butt;stroke-linejoin:miter;stroke-opacity:1"
         d="m 190.94306,640.31188 c 0,0 0.26635,0.033 0.514,0.1728 0.24764,0.14419 0.71982,0.853 0.71982,0.853"
         id="path2721-6-5-9-3-4" />
      <path
         sodipodi:nodetypes="cc"
         style="fill:none;stroke:#000000;stroke-width:0.205123px;stroke-linecap:butt;stroke-linejoin:miter;stroke-opacity:1"
         d="m 192.17457,641.33405 0.88492,0.87501"
         id="path2723-2-4-9-1-3" />
      <path
         sodipodi:nodetypes="czzcc"
         style="fill:none;stroke:#000000;stroke-width:0.205123px;stroke-linecap:butt;stroke-linejoin:miter;stroke-opacity:1"
         d="m 191.03441,661.25946 c 0,0 0.32359,-0.003 0.39733,0.022 0.0771,0.022 0.25866,0.11006 0.3335,0.14748 0.077,0.033 0.42815,0.055 0.42815,0.055 l 0.8541,-0.006"
         id="path2725-09-1-8-3-8" />
      <path
         sodipodi:nodetypes="csscc"
         style="fill:none;stroke:#000000;stroke-width:0.205123px;stroke-linecap:butt;stroke-linejoin:miter;stroke-opacity:1"
         d="m 200.6361,636.05503 c 0,0 0.8464,-0.11557 0.8464,-0.011 0,0.0991 0.12767,0.73083 -0.033,0.74404 -0.1673,0.011 -0.83319,0.077 -0.83319,0.077 z"
         id="path2735-3-0-1-8-7" />
      <path
         id="path3087-5-45-5-5"
         d="m 195.6274,661.75298 c 0,0 0.11227,12.53029 0.033,13.27146 -0.077,0.74074 -2.64265,7.02289 -2.64265,7.02289 v -39.91674 l 2.85067,7.06393 z"
         style="fill:#b4b4b4;fill-opacity:1;stroke:#000000;stroke-width:0.205123px;stroke-linecap:butt;stroke-linejoin:miter;stroke-opacity:1"
         sodipodi:nodetypes="cccccc" />
      <path
         sodipodi:nodetypes="cc"
         id="path3085-3-0-8-3"
         d="m 195.6274,661.75298 -2.58079,-0.27516"
         style="fill:none;stroke:#000000;stroke-width:0.205123px;stroke-linecap:butt;stroke-linejoin:miter;stroke-opacity:1" />
      <path
         id="path3087-5-4-4-8"
         d="m 193.02096,682.04733 -0.71541,-0.28177 -1.227,-1.49379"
         style="fill:none;stroke:#000000;stroke-width:0.205123px;stroke-linecap:butt;stroke-linejoin:miter;stroke-opacity:1"
         sodipodi:nodetypes="ccc" />
      <path
         id="path3089-0-4-7-1"
         d="m 195.66361,675.02444 -2.62867,-0.689"
         style="fill:none;stroke:#000000;stroke-width:0.205123px;stroke-linecap:butt;stroke-linejoin:miter;stroke-opacity:1" />
      <path
         id="path3097-6-9-3-7"
         d="m 193.11573,685.05616 0.088,11.38275 0.41054,9.15362"
         style="fill:none;stroke:#000000;stroke-width:0.205123px;stroke-linecap:butt;stroke-linejoin:miter;stroke-opacity:1"
         sodipodi:nodetypes="ccc" />
      <path
         sodipodi:nodetypes="czc"
         id="path3099-1-5-3-2"
         d="m 195.76366,635.99592 c 0,0 4.67466,-18.59252 4.97656,-19.49648 0.30158,-0.90363 0.81008,-2.27063 1.19442,-3.11681"
         style="fill:none;stroke:#000000;stroke-width:0.205123px;stroke-linecap:butt;stroke-linejoin:miter;stroke-opacity:1" />
      <path
         id="path3105-9-9-5-2"
         d="m 202.29819,635.67145 v 1.15381"
         style="fill:none;stroke:#000000;stroke-width:0.205123px;stroke-linecap:butt;stroke-linejoin:miter;stroke-opacity:1" />
      <path
         style="fill:none;stroke:#000000;stroke-width:0.205123px;stroke-linecap:butt;stroke-linejoin:miter;stroke-opacity:1"
         d="m 203.10595,635.59452 v 1.1538"
         id="path3105-4-09-1-6-4" />
      <path
         id="path3105-4-9-9-0-6-2"
         d="m 203.88796,635.53046 v 1.15381"
         style="fill:none;stroke:#000000;stroke-width:0.205123px;stroke-linecap:butt;stroke-linejoin:miter;stroke-opacity:1" />
      <path
         id="path3105-4-7-0-3-5-4"
         d="m 204.65709,635.50482 v 1.1538"
         style="fill:none;stroke:#000000;stroke-width:0.205123px;stroke-linecap:butt;stroke-linejoin:miter;stroke-opacity:1" />
      <path
         id="path3105-4-2-0-3-5-5"
         d="m 205.4392,635.42788 v 1.15381"
         style="fill:none;stroke:#000000;stroke-width:0.205123px;stroke-linecap:butt;stroke-linejoin:miter;stroke-opacity:1" />
      <path
         id="path3105-4-0-7-7-9-1"
         d="m 206.1314,635.37659 v 1.15381"
         style="fill:none;stroke:#000000;stroke-width:0.205123px;stroke-linecap:butt;stroke-linejoin:miter;stroke-opacity:1" />
      <path
         id="path3105-4-6-2-9-2-3"
         d="m 206.75965,635.35095 v 1.1538"
         style="fill:none;stroke:#000000;stroke-width:0.205123px;stroke-linecap:butt;stroke-linejoin:miter;stroke-opacity:1" />
      <path
         id="path3105-4-3-1-9-8-2"
         d="m 207.4776,635.31242 v 1.15392"
         style="fill:none;stroke:#000000;stroke-width:0.205123px;stroke-linecap:butt;stroke-linejoin:miter;stroke-opacity:1" />
      <path
         id="path3105-4-8-2-4-3-6"
         d="m 208.25961,635.29966 v 1.1538"
         style="fill:none;stroke:#000000;stroke-width:0.205123px;stroke-linecap:butt;stroke-linejoin:miter;stroke-opacity:1" />
      <path
         style="fill:none;stroke:#000000;stroke-width:0.205123px;stroke-linecap:butt;stroke-linejoin:miter;stroke-opacity:1"
         d="m 209.01157,635.27401 v 1.15381"
         id="path3105-4-8-9-6-8-7-3" />
      <path
         id="path3087-5-6-8-4"
         d="m 226.04272,682.04733 0.71542,-0.28177 1.2271,-1.49379"
         style="fill:none;fill-opacity:1;stroke:#000000;stroke-width:0.205123px;stroke-linecap:butt;stroke-linejoin:miter;stroke-opacity:1"
         sodipodi:nodetypes="czccc" />
      <path
         sodipodi:nodetypes="cc"
         style="fill:none;stroke:#000000;stroke-width:0.205123px;stroke-linecap:butt;stroke-linejoin:miter;stroke-opacity:1"
         d="m 213.7439,707.83774 h -8.46187"
         id="path3793-2-4" />
      <path
         id="path2733-0-3-9-0-1-0"
         d="m 208.41843,707.4393 c 0,0 0.72973,0 1.09404,0 0.36431,0 1.09404,0 1.09404,0"
         style="fill:none;stroke:#000000;stroke-width:0.246303px;stroke-linecap:butt;stroke-linejoin:miter;stroke-opacity:1"
         sodipodi:nodetypes="csc" />
      <path
         sodipodi:nodetypes="cccc"
         id="path2699-2-4-3-6"
         d="m 226.45293,613.44383 c 0,0 -1.61531,-1.73428 -4.11531,-0.37532 l -0.022,0.47438 c 0,0 3.19814,-0.033 4.14095,-0.0991 z"
         style="fill:#ffeeaa;fill-opacity:1;stroke:#000000;stroke-width:0.205123px;stroke-linecap:butt;stroke-linejoin:miter;stroke-opacity:1" />
      <path
         style="fill:#ffeeaa;fill-opacity:1;stroke:#000000;stroke-width:0.205123px;stroke-linecap:butt;stroke-linejoin:miter;stroke-opacity:1"
         d="m 192.61064,613.44383 c 0.0991,-0.077 1.61542,-1.73428 4.11531,-0.37532 l 0.022,0.47438 c -1.63831,-0.022 -2.82712,-0.022 -4.14096,-0.0991 z"
         id="path2699-2-4-1-7-6"
         sodipodi:nodetypes="cccc" />
      <path
         sodipodi:nodetypes="czczccc"
         id="path3091-0-3-4-9"
         d="m 194.73654,688.80462 c 0.35881,-3.48706 1.8733,-7.93135 2.24135,-7.92937 0.36762,0.002 8.17724,0.93004 12.53502,0.93004 4.35789,0 12.20483,-0.92894 12.57288,-0.93004 0.36762,-0.002 1.88232,4.44231 2.24135,7.92937 -2.66158,3.09722 -12.95139,3.12275 -14.81423,3.12165 -1.86284,0.002 -12.11479,-0.022 -14.77637,-3.12165 z"
         style="fill:#b4b4b4;fill-opacity:1;stroke:#000000;stroke-width:0.205123px;stroke-linecap:butt;stroke-linejoin:miter;stroke-opacity:1" />
      <path
         sodipodi:nodetypes="ccccc"
         id="path4232-8-0"
         d="m 195.82816,650.53698 -2.8072,-5.56409 v -2.8423 l 2.85442,7.22 z"
         style="fill:#c8c8c8;fill-opacity:1;stroke:#000000;stroke-width:0.205123px;stroke-linecap:butt;stroke-linejoin:miter;stroke-opacity:1" />
      <path
         sodipodi:nodetypes="cccccscccc"
         id="path4249-1-5"
         d="m 193.14104,645.21074 c 0,0 -0.71762,0.35441 -0.96196,0.45457 0,0 -1.00929,0.36321 -1.34047,0.5173 l -0.88932,0.6879 -0.76935,1.00049 c 0,0 0.055,0.48758 0.15409,0.48758 0.099,0 1.65768,-1.07643 1.65768,-1.07643 l 2.05809,-0.81227 1.14984,0.83979 z"
         style="fill:#c8c8c8;fill-opacity:1;stroke:#000000;stroke-width:0.205123;stroke-linecap:butt;stroke-linejoin:miter;stroke-miterlimit:4;stroke-dasharray:none;stroke-opacity:1" />
      <path
         style="fill:#c8c8c8;fill-opacity:1;stroke:#000000;stroke-width:0.205123px;stroke-linecap:butt;stroke-linejoin:miter;stroke-opacity:1"
         d="m 223.23916,650.38091 2.8073,-5.56409 v -2.84231 l -2.85441,7.22001 z"
         id="path4232-50-5-9"
         sodipodi:nodetypes="ccccc" />
      <path
         style="fill:#c8c8c8;fill-opacity:1;stroke:#000000;stroke-width:0.205123;stroke-linecap:butt;stroke-linejoin:miter;stroke-miterlimit:4;stroke-dasharray:none;stroke-opacity:1"
         d="m 225.92638,645.05478 c 0,0 0.71762,0.35441 0.96196,0.45456 1.1e-4,0 1.00929,0.36322 1.34059,0.51731 l 0.88932,0.6879 0.76935,1.00049 c 0,0 -0.055,0.48758 -0.15409,0.48758 -0.0991,0 -1.65779,-1.07643 -1.65779,-1.07643 l -2.05799,-0.81227 -1.14984,0.83979 z"
         id="path4249-3-1-4"
         sodipodi:nodetypes="cccccscccc" />
      <g
         transform="matrix(0,0.37102401,-0.37102401,0,304.19776,762.7129)"
         id="g6173">
        <path
           style="fill:#b4b4b4;fill-opacity:1;stroke:#000000;stroke-width:0.552;stroke-linecap:butt;stroke-linejoin:miter;stroke-miterlimit:4;stroke-dasharray:none;stroke-opacity:1"
           d="m -322.44256,246.98349 1.875,2 h 9.25 l 4.17686,-26.09377 1.24977,-4.56857 c -0.625,-0.125 -10.80165,-4.33766 -10.80165,-4.33766 l -4.4746,-1.74202 z"
           id="path6141"
           sodipodi:nodetypes="cccccccc" />
        <path
           id="path6141-2"
           d="m -322.04481,261.59206 1.47725,-0.36482 h 9.25 c 0,0 4.15733,24.98198 4.40179,25.78408 l 1.45871,4.78612 c -0.625,0.125 -11.2355,4.4298 -11.2355,4.4298 l -4.4746,1.74202 z"
           style="fill:#b4b4b4;fill-opacity:1;stroke:#000000;stroke-width:0.552;stroke-linecap:butt;stroke-linejoin:miter;stroke-miterlimit:4;stroke-dasharray:none;stroke-opacity:1"
           sodipodi:nodetypes="cccscccc" />
        <path
           id="path2731-9-7-7-1-3-3-7"
           d="m -321.16716,297.96926 -3.62283,1.42844 c 0,0 -2.57872,1.39745 -7.9443,-5.91 -6.62444,-9.02021 -6.60845,-31.02342 -6.60845,-38.39955 0,-7.37586 -0.0161,-29.37935 6.60845,-38.39953 5.36587,-7.30657 7.9443,-5.90972 7.9443,-5.90972 l 3.62283,1.46257 -0.19329,5.44913 -0.64017,15.93306 -0.56694,14.98483 v 9.875 l 0.875,7.125 1.75,0.125 0.75,7.625 -0.25,7.75 -0.125,2.125 -1.5,1.25 -0.125,8.25 z"
           style="fill:#1e1e1e;fill-opacity:1;stroke:#000000;stroke-width:0.551764px;stroke-linecap:butt;stroke-linejoin:miter;stroke-opacity:1"
           sodipodi:nodetypes="ccscscccccccccccccc" />
        <path
           style="fill:none;stroke:#000000;stroke-width:0.552;stroke-linecap:butt;stroke-linejoin:miter;stroke-miterlimit:4;stroke-dasharray:none;stroke-opacity:1"
           d="m -334.00485,268.162 c 0.7955,-0.44195 3.35876,-2.2981 4.15426,-2.47488 0.79549,-0.17678 5.03813,-0.53033 5.03813,-0.53033 l 3.1199,0.4517"
           id="path6105" />
        <path
           style="fill:none;stroke:#000000;stroke-width:0.552;stroke-linecap:butt;stroke-linejoin:miter;stroke-miterlimit:4;stroke-dasharray:none;stroke-opacity:1"
           d="m -321.06756,284.48349 -5.07072,-0.058 -4.77297,-0.88388 -1.94455,-1.32583"
           id="path6107" />
        <path
           style="fill:#000003;fill-opacity:1;stroke:#000000;stroke-width:1px;stroke-linecap:butt;stroke-linejoin:round;stroke-opacity:1"
           d="m -332.32547,249.33528 -0.0884,11.57887 6.18719,0.26517 -0.26517,-11.93243 z"
           id="path6109" />
        <path
           style="fill:none;stroke:#000000;stroke-width:1px;stroke-linecap:butt;stroke-linejoin:miter;stroke-opacity:1"
           d="m -336.47972,284.0719 1.41421,-13.08148"
           id="path6111" />
        <path
           style="fill:none;stroke:#000000;stroke-width:1px;stroke-linecap:butt;stroke-linejoin:miter;stroke-opacity:1"
           d="m -334.71195,259.58833 -0.35356,11.40209 2.38649,12.99309"
           id="path6113" />
        <g
           id="g6135"
           transform="matrix(1,0,0,-1,-36.815968,484.99976)">
          <path
             style="fill:none;stroke:#000000;stroke-width:1px;stroke-linecap:butt;stroke-linejoin:miter;stroke-opacity:1"
             d="m -299.39814,260.40889 1.41421,-13.08148"
             id="path6111-0" />
          <path
             style="fill:none;stroke:#000000;stroke-width:1px;stroke-linecap:butt;stroke-linejoin:miter;stroke-opacity:1"
             d="m -297.63037,235.92532 -0.35356,11.40209 2.38649,12.99309"
             id="path6113-9" />
        </g>
        <path
           style="fill:#000000;fill-opacity:1;stroke:#000000;stroke-width:1px;stroke-linecap:butt;stroke-linejoin:miter;stroke-opacity:1"
           d="m -319.19256,273.35849 2.51183,-0.24675 0.17678,-1.5026 c 0,0 2.91681,0.70711 3.0052,-0.0884 0.0884,-0.79549 0.61872,-3.35875 0.61872,-3.35875 l 1.66894,-3.35664 3.84136,23.0484 -2.35865,-0.59988 c 0,0 -2.26777,-2.2981 -2.53293,-3.27037 -0.26517,-0.97227 -0.7955,-5.21491 -0.7955,-5.65685 0,-0.44195 -2.91681,-0.61872 -2.91681,-0.61872 l -0.0884,-1.32583 -3.18198,-0.0884 c -0.0884,-0.70708 0.0514,-2.93521 0.0514,-2.93521 z"
           id="path6139"
           sodipodi:nodetypes="cccsccccssccccc" />
        <path
           style="fill:#1e1e1e;fill-opacity:1;stroke:#000000;stroke-width:0.552;stroke-linecap:butt;stroke-linejoin:miter;stroke-miterlimit:4;stroke-dasharray:none;stroke-opacity:1"
           d="m -311.31756,248.98349 v 12.24375 h -9.25 l -1.65402,0.40901 -0.22097,-14.65276 1.875,2 z"
           id="path6158"
           sodipodi:nodetypes="ccccccc" />
      </g>
    </g>
  </g>
</svg>
