<?xml version="1.0" encoding="UTF-8" standalone="no"?>
<svg
   xmlns:dc="http://purl.org/dc/elements/1.1/"
   xmlns:cc="http://creativecommons.org/ns#"
   xmlns:rdf="http://www.w3.org/1999/02/22-rdf-syntax-ns#"
   xmlns:svg="http://www.w3.org/2000/svg"
   xmlns="http://www.w3.org/2000/svg"
   xmlns:sodipodi="http://sodipodi.sourceforge.net/DTD/sodipodi-0.dtd"
   xmlns:inkscape="http://www.inkscape.org/namespaces/inkscape"
   sodipodi:docname="pitchAltitudeAngleOfAttackIndicatorCloud_movable.svg"
   inkscape:version="1.0 (4035a4fb49, 2020-05-01)"
   version="1.1"
   id="svg2"
   height="40"
   width="200">
  <defs
     id="defs4">
    <rect
       x="-276.41016"
       y="482.63913"
       width="129.70415"
       height="73.846153"
       id="rect5343" />
    <rect
       x="677.40051"
       y="607.36694"
       width="93.29686"
       height="55.583263"
       id="rect5114" />
    <inkscape:path-effect
       effect="copy_rotate"
       starting_point="0,0"
       origin="387.2,800"
       id="path-effect4508"
       is_visible="true"
       lpeversion="1"
       method="normal"
       num_copies="8"
       starting_angle="0"
       rotation_angle="45"
       gap="-0.01"
       copies_to_360="true"
       mirror_copies="false"
       split_items="false" />
    <inkscape:path-effect
       effect="copy_rotate"
       starting_point="0,0"
       origin="0,0"
       id="path-effect4506"
       is_visible="true"
       lpeversion="1"
       method="normal"
       num_copies="8"
       starting_angle="0"
       rotation_angle="60"
       gap="-0.01"
       copies_to_360="false"
       mirror_copies="false"
       split_items="false" />
    <clipPath
       id="clipEmfPath1"
       clipPathUnits="userSpaceOnUse">
      <path
         id="path839"
         d="M 0,0 H 369.7408 V 348.62189 H 0 Z" />
    </clipPath>
    <pattern
       y="0"
       x="0"
       height="6"
       width="6"
       patternUnits="userSpaceOnUse"
       id="EMFhbasepattern" />
    <rect
       id="rect5114-9"
       height="55.583263"
       width="93.29686"
       y="607.36694"
       x="677.40051" />
    <rect
       id="rect5142"
       height="55.583263"
       width="93.29686"
       y="607.36694"
       x="677.40051" />
    <rect
       id="rect5114-0"
       height="55.583263"
       width="93.29686"
       y="607.36694"
       x="677.40051" />
    <rect
       id="rect5171"
       height="55.583263"
       width="93.29686"
       y="607.36694"
       x="677.40051" />
    <rect
       x="677.40051"
       y="607.36694"
       width="93.29686"
       height="55.583263"
       id="rect5114-0-3" />
    <rect
       x="677.40051"
       y="607.36694"
       width="93.29686"
       height="55.583263"
       id="rect5200" />
    <rect
       id="rect5114-0-3-3"
       height="55.583263"
       width="93.29686"
       y="607.36694"
       x="677.40051" />
    <rect
       id="rect5230"
       height="55.583263"
       width="93.29686"
       y="607.36694"
       x="677.40051" />
    <rect
       x="677.40051"
       y="607.36694"
       width="93.29686"
       height="55.583263"
       id="rect5114-0-3-3-5" />
    <rect
       x="677.40051"
       y="607.36694"
       width="93.29686"
       height="55.583263"
       id="rect5260" />
    <rect
       id="rect5114-0-3-3-5-0"
       height="55.583263"
       width="93.29686"
       y="607.36694"
       x="677.40051" />
    <rect
       id="rect5290"
       height="55.583263"
       width="93.29686"
       y="607.36694"
       x="677.40051" />
    <rect
       x="677.40051"
       y="607.36694"
       width="93.29686"
       height="55.583263"
       id="rect5114-0-3-3-5-0-2" />
    <rect
       x="677.40051"
       y="607.36694"
       width="93.29686"
       height="55.583263"
       id="rect5320" />
    <rect
       id="rect5343-3"
       height="49.298981"
       width="56.971786"
       y="482.63913"
       x="-276.41016" />
    <rect
       id="rect5356"
       height="73.846153"
       width="129.70415"
       y="482.63913"
       x="-276.41016" />
    <rect
       x="-276.41016"
       y="482.63913"
       width="30.502607"
       height="45.08865"
       id="rect5343-3-1" />
    <rect
       x="-276.41016"
       y="482.63913"
       width="56.971786"
       height="49.298981"
       id="rect5385" />
    <rect
       id="rect5343-3-1-1"
       height="47.361534"
       width="35.048378"
       y="482.63913"
       x="-276.41016" />
    <rect
       id="rect5415"
       height="45.08865"
       width="30.502607"
       y="482.63913"
       x="-276.41016" />
    <rect
       id="rect5343-9"
       height="73.846153"
       width="129.70415"
       y="482.63913"
       x="-276.41016" />
    <rect
       id="rect5114-1"
       height="55.583263"
       width="93.29686"
       y="607.36694"
       x="677.40051" />
    <clipPath
       clipPathUnits="userSpaceOnUse"
       id="clipEmfPath1-7">
      <path
         d="M 0,0 H 369.7408 V 348.62189 H 0 Z"
         id="path839-3" />
    </clipPath>
    <pattern
       id="EMFhbasepattern-4"
       patternUnits="userSpaceOnUse"
       width="6"
       height="6"
       x="0"
       y="0" />
    <rect
       x="677.40051"
       y="607.36694"
       width="93.29686"
       height="55.583263"
       id="rect5114-9-3" />
    <rect
       x="677.40051"
       y="607.36694"
       width="93.29686"
       height="55.583263"
       id="rect5142-8" />
    <rect
       x="677.40051"
       y="607.36694"
       width="93.29686"
       height="55.583263"
       id="rect5114-0-7" />
    <rect
       x="677.40051"
       y="607.36694"
       width="93.29686"
       height="55.583263"
       id="rect5171-7" />
    <rect
       id="rect5114-0-3-5"
       height="55.583263"
       width="93.29686"
       y="607.36694"
       x="677.40051" />
    <rect
       id="rect5200-4"
       height="55.583263"
       width="93.29686"
       y="607.36694"
       x="677.40051" />
    <rect
       x="677.40051"
       y="607.36694"
       width="93.29686"
       height="55.583263"
       id="rect5114-0-3-3-1" />
    <rect
       x="677.40051"
       y="607.36694"
       width="93.29686"
       height="55.583263"
       id="rect5230-1" />
    <rect
       id="rect5114-0-3-3-5-2"
       height="55.583263"
       width="93.29686"
       y="607.36694"
       x="677.40051" />
    <rect
       id="rect5260-1"
       height="55.583263"
       width="93.29686"
       y="607.36694"
       x="677.40051" />
    <rect
       x="677.40051"
       y="607.36694"
       width="93.29686"
       height="55.583263"
       id="rect5114-0-3-3-5-0-9" />
    <rect
       x="677.40051"
       y="607.36694"
       width="93.29686"
       height="55.583263"
       id="rect5290-6" />
    <rect
       id="rect5114-0-3-3-5-0-2-2"
       height="55.583263"
       width="93.29686"
       y="607.36694"
       x="677.40051" />
    <rect
       id="rect5320-6"
       height="55.583263"
       width="93.29686"
       y="607.36694"
       x="677.40051" />
    <rect
       x="-276.41016"
       y="482.63913"
       width="56.971786"
       height="49.298981"
       id="rect5343-3-8" />
    <rect
       x="-276.41016"
       y="482.63913"
       width="129.70415"
       height="73.846153"
       id="rect5356-2" />
    <rect
       id="rect5343-3-1-10"
       height="45.08865"
       width="30.502607"
       y="482.63913"
       x="-276.41016" />
    <rect
       id="rect5385-8"
       height="49.298981"
       width="56.971786"
       y="482.63913"
       x="-276.41016" />
    <rect
       x="-276.41016"
       y="482.63913"
       width="35.048378"
       height="47.361534"
       id="rect5343-3-1-1-6" />
    <rect
       x="-276.41016"
       y="482.63913"
       width="30.502607"
       height="45.08865"
       id="rect5415-4" />
  </defs>
  <sodipodi:namedview
     inkscape:snap-nodes="true"
     inkscape:object-paths="true"
     inkscape:object-nodes="true"
     inkscape:snap-global="true"
     inkscape:snap-center="true"
     inkscape:guide-bbox="true"
     showguides="true"
     inkscape:document-rotation="0"
     inkscape:window-maximized="1"
     inkscape:window-y="-8"
     inkscape:window-x="-8"
     inkscape:window-height="1017"
     inkscape:window-width="1920"
     fit-margin-bottom="0"
     fit-margin-right="0"
     fit-margin-left="0"
     fit-margin-top="0"
     showgrid="false"
     inkscape:current-layer="layer1"
     inkscape:document-units="px"
     inkscape:cy="-26.370957"
     inkscape:cx="98.169383"
     inkscape:zoom="2.8284272"
     inkscape:pageshadow="2"
     inkscape:pageopacity="0.0"
     borderopacity="1.0"
     bordercolor="#666666"
     pagecolor="#ffffff"
     id="base"
     inkscape:snap-midpoints="false"
     inkscape:snap-grids="false"
     inkscape:snap-smooth-nodes="true"
     inkscape:snap-intersection-paths="false"
     inkscape:snap-object-midpoints="true">
    <sodipodi:guide
       inkscape:color="rgb(0,0,255)"
       inkscape:locked="false"
       inkscape:label=""
       id="guide994"
       orientation="0,1"
       position="349.9154,-227.63027" />
    <sodipodi:guide
       position="100,20"
       orientation="0,1"
       id="guide1575"
       inkscape:label=""
       inkscape:locked="true"
       inkscape:color="rgb(0,0,255)" />
  </sodipodi:namedview>
  <metadata
     id="metadata7">
    <rdf:RDF>
      <cc:Work
         rdf:about="">
        <dc:format>image/svg+xml</dc:format>
        <dc:type
           rdf:resource="http://purl.org/dc/dcmitype/StillImage" />
        <dc:title />
      </cc:Work>
    </rdf:RDF>
  </metadata>
  <g
     transform="translate(178.5149,-712.29577)"
     id="layer1"
     inkscape:groupmode="layer"
     inkscape:label="Layer 1">
    <path
       style="fill:#ffffff;fill-opacity:1;stroke:#000000;stroke-width:0.622214;stroke-linecap:butt;stroke-linejoin:miter;stroke-miterlimit:4;stroke-dasharray:none;stroke-opacity:1"
       d="m -91.071471,736.50915 c 0,0 40.1328,0.62222 41.37723,0.31111 1.24443,-0.31111 1.15331,-6.86971 12.04205,-3.44753 10.88875,3.42218 8.17991,5.00306 18.44644,5.00306 10.26653,0 23.3330197,0.93332 27.0662997,-0.93332 3.7332903,-1.86664 11.8220703,-0.93332 11.1998603,-4.97771 -0.62222,-4.04439 -12.1331703,-14.93314 -13.3776103,-13.68871 -1.24442,1.24443 -3.73004,2.46998 -3.73004,2.46998 0,0 -2.18099,-9.93655 -9.33645,-5.89216 -7.1554597,4.04439 -9.8675397,10.95452 -14.9800297,9.27984 -12.98167,-4.25237 -12.08628,-15.81308 -19.86395,-4.30213 -7.77768,11.51096 -1.86664,0.62222 -18.97753,-4.6666 -17.11089,-5.28882 -8.711,7.46657 -9.95543,11.19985 -1.24442,3.73329 -15.55534,-4.3555 -16.79977,1.86665 -1.24443,6.22214 -3.11107,7.77767 -3.11107,7.77767 z"
       id="path1489-9"
       sodipodi:nodetypes="csssssscssssssc" />
  </g>
</svg>
