<?xml version="1.0" encoding="UTF-8" standalone="no"?>
<svg
   xmlns:dc="http://purl.org/dc/elements/1.1/"
   xmlns:cc="http://creativecommons.org/ns#"
   xmlns:rdf="http://www.w3.org/1999/02/22-rdf-syntax-ns#"
   xmlns:svg="http://www.w3.org/2000/svg"
   xmlns="http://www.w3.org/2000/svg"
   xmlns:sodipodi="http://sodipodi.sourceforge.net/DTD/sodipodi-0.dtd"
   xmlns:inkscape="http://www.inkscape.org/namespaces/inkscape"
   inkscape:version="1.0 (4035a4fb49, 2020-05-01)"
   sodipodi:docname="pitchAltitudeAngleOfAttackIndicator_base.svg"
   id="svg977"
   version="1.1"
   viewBox="0 0 52.916668 105.83333"
   height="399.99997"
   width="200">
  <defs
     id="defs971" />
  <sodipodi:namedview
     inkscape:snap-center="true"
     inkscape:snap-object-midpoints="true"
     inkscape:snap-intersection-paths="true"
     units="px"
     inkscape:guide-bbox="true"
     showguides="true"
     inkscape:snap-global="true"
     inkscape:window-maximized="1"
     inkscape:window-y="-8"
     inkscape:window-x="1912"
     inkscape:window-height="1017"
     inkscape:window-width="1920"
     showgrid="false"
     inkscape:document-rotation="0"
     inkscape:current-layer="layer1"
     inkscape:document-units="px"
     inkscape:cy="245.4751"
     inkscape:cx="173.96207"
     inkscape:zoom="1.4142136"
     inkscape:pageshadow="2"
     inkscape:pageopacity="0.0"
     borderopacity="1.0"
     bordercolor="#666666"
     pagecolor="#ffffff"
     id="base">
    <sodipodi:guide
       inkscape:color="rgb(0,0,255)"
       inkscape:locked="true"
       inkscape:label=""
       id="guide1708"
       orientation="0,1"
       position="52.916669,-5.0862632e-06" />
    <sodipodi:guide
       inkscape:color="rgb(0,0,255)"
       inkscape:locked="true"
       inkscape:label=""
       id="guide1710"
       orientation="0,1"
       position="52.916669,97.895829" />
    <sodipodi:guide
       inkscape:color="rgb(0,0,255)"
       inkscape:locked="true"
       inkscape:label=""
       id="guide1712"
       orientation="0,1"
       position="52.916669,51.593744" />
    <sodipodi:guide
       inkscape:color="rgb(0,0,255)"
       inkscape:locked="true"
       inkscape:label=""
       id="guide1714"
       orientation="0,1"
       position="52.916669,79.374995" />
    <sodipodi:guide
       inkscape:color="rgb(0,0,255)"
       inkscape:locked="true"
       inkscape:label=""
       id="guide1716"
       orientation="0,1"
       position="52.916669,60.854161" />
    <sodipodi:guide
       inkscape:color="rgb(0,0,255)"
       inkscape:locked="true"
       inkscape:label=""
       id="guide1718"
       orientation="0,1"
       position="52.916669,42.333327" />
    <sodipodi:guide
       inkscape:color="rgb(0,0,255)"
       inkscape:locked="true"
       inkscape:label=""
       id="guide1720"
       orientation="0,1"
       position="52.916669,23.812493" />
    <sodipodi:guide
       inkscape:color="rgb(0,0,255)"
       inkscape:locked="true"
       inkscape:label=""
       id="guide1722"
       orientation="0,1"
       position="52.916669,5.2916588" />
    <sodipodi:guide
       inkscape:color="rgb(0,0,255)"
       inkscape:locked="true"
       inkscape:label=""
       id="guide1827"
       orientation="-1,0"
       position="26.458334,105.83333" />
    <sodipodi:guide
       id="guide1875"
       orientation="0,-1"
       position="-2.9232605,16.568645" />
    <sodipodi:guide
       id="guide1892"
       orientation="0,-1"
       position="4.7674215,17.34038" />
    <sodipodi:guide
       id="guide2009"
       orientation="0,-1"
       position="-44.038659,19.51818" />
    <sodipodi:guide
       inkscape:color="rgb(0,0,255)"
       inkscape:locked="true"
       inkscape:label=""
       id="guide2011"
       orientation="-1,0"
       position="52.916669,-8.0744428e-06" />
    <sodipodi:guide
       inkscape:color="rgb(0,0,255)"
       inkscape:locked="true"
       inkscape:label=""
       id="guide2013"
       orientation="-1,0"
       position="0,-8.0744428e-06" />
  </sodipodi:namedview>
  <metadata
     id="metadata974">
    <rdf:RDF>
      <cc:Work
         rdf:about="">
        <dc:format>image/svg+xml</dc:format>
        <dc:type
           rdf:resource="http://purl.org/dc/dcmitype/StillImage" />
        <dc:title></dc:title>
      </cc:Work>
    </rdf:RDF>
  </metadata>
  <g
     transform="translate(-61.54892,-95.467901)"
     id="layer1"
     inkscape:groupmode="layer"
     inkscape:label="Layer 1">
    <path
       d="m 61.54892,95.467901 h 52.91667 V 201.30123 H 61.54892 Z"
       style="display:inline;fill:#b5e2e1;fill-opacity:1;stroke:none;stroke-width:1.8775;stroke-linecap:round;stroke-linejoin:round;stroke-miterlimit:4;stroke-dasharray:none"
       id="rect1546" />
    <g
       style="display:inline"
       transform="matrix(0.16538381,0,0,0.16538381,49.28439,2.0779924)"
       id="g1544">
      <path
         id="path1538"
         style="fill:#ff9c00;fill-opacity:1;stroke:none;stroke-width:2;stroke-linecap:round;stroke-linejoin:round;stroke-miterlimit:4;stroke-dasharray:none"
         inkscape:transform-center-x="11.00057"
         inkscape:transform-center-y="11.00057"
         d="m 135.03798,552.91903 35.53753,-1.66863 -20.61678,28.99394 30.7982,17.80929 -33.01925,13.24498 16.28066,31.6329 -34.93833,-6.70917 -3.40587,35.41328 -25.764749,-24.5332 -22.011063,27.95019 -8.411038,-34.56811 -33.627897,11.61312 11.613116,-33.6279 -34.568112,-8.41104 27.95019,-22.01106 -24.533196,-25.76475 35.413274,-3.40587 -6.709163,-34.93833 31.632895,16.28066 13.244981,-33.01925 17.809292,30.7982 28.99394,-20.61678 z" />
      <path
         id="path1536"
         style="fill:#ffcc00;fill-opacity:1;stroke:none;stroke-width:1.89706;stroke-linecap:round;stroke-linejoin:round;stroke-miterlimit:4;stroke-dasharray:none"
         d="M 142.43905,591.12635 A 45.608386,45.608386 0 0 1 96.830663,636.73473 45.608386,45.608386 0 0 1 51.222284,591.12635 45.608386,45.608386 0 0 1 96.830663,545.51796 45.608386,45.608386 0 0 1 142.43905,591.12635 Z" />
    </g>
    <g
       transform="matrix(0.63397975,0,0,0.63397975,-30.99773,109.17225)"
       id="id-9a6a08bd-b2c3-48e2-a017-d63059b005ed"
       style="display:inline;fill:#000000;fill-opacity:1;stroke-width:1.34109">
      <g
         style="fill:#000000;fill-opacity:1;stroke-width:1.34109"
         transform="translate(148.712,134.765)"
         id="g1070">
        <path
           id="id-e58b00b3-5756-4133-a906-500d9305c817"
           d="m 4.578125,-3.1875 c 0,-0.796875 -0.046875,-1.59375 -0.390625,-2.328125 -0.453125,-0.96875 -1.28125,-1.125 -1.6875,-1.125 -0.609375,0 -1.328125,0.265625 -1.75,1.1875 -0.3125,0.6875 -0.359375,1.46875 -0.359375,2.265625 0,0.75 0.03125,1.640625 0.453125,2.40625 0.421875,0.796875 1.15625,1 1.640625,1 0.53125,0 1.296875,-0.203125 1.734375,-1.15625 0.3125,-0.6875 0.359375,-1.46875 0.359375,-2.25 z M 2.484375,0 C 2.09375,0 1.5,-0.25 1.328125,-1.203125 1.21875,-1.796875 1.21875,-2.71875 1.21875,-3.3125 c 0,-0.640625 0,-1.296875 0.078125,-1.828125 0.1875,-1.1875 0.9375,-1.28125 1.1875,-1.28125 0.328125,0 0.984375,0.1875 1.171875,1.171875 0.109375,0.5625 0.109375,1.3125 0.109375,1.9375 0,0.75 0,1.421875 -0.109375,2.0625 C 3.5,-0.296875 2.9375,0 2.484375,0 Z m 0,0"
           style="fill:#000000;fill-opacity:1;stroke:none;stroke-width:1.34109" />
      </g>
    </g>
    <g
       style="fill:#000000;fill-opacity:1;stroke-width:1.34109"
       id="id-261245dd-489e-4a58-b392-949c1f15944e"
       transform="matrix(0.38377979,0,0,0.38377979,3.6740642,49.659737)">
      <g
         style="fill:#000000;fill-opacity:1;stroke-width:1.34109"
         id="g1074"
         transform="translate(153.694,134.765)">
        <path
           style="fill:#000000;fill-opacity:1;stroke:none;stroke-width:1.34109"
           d="M 7.609375,-6.046875 C 7.703125,-6.40625 7.71875,-6.5 8.4375,-6.5 c 0.265625,0 0.34375,0 0.34375,-0.203125 0,-0.109375 -0.109375,-0.109375 -0.140625,-0.109375 -0.28125,0 -1,0.03125 -1.28125,0.03125 -0.28125,0 -0.984375,-0.03125 -1.28125,-0.03125 -0.078125,0 -0.1875,0 -0.1875,0.203125 0,0.109375 0.09375,0.109375 0.28125,0.109375 0.015625,0 0.203125,0 0.375,0.015625 0.1875,0.03125 0.265625,0.03125 0.265625,0.171875 0,0.03125 0,0.046875 -0.03125,0.1875 L 6.1875,-3.703125 H 3.140625 l 0.59375,-2.34375 C 3.8125,-6.40625 3.84375,-6.5 4.5625,-6.5 c 0.265625,0 0.34375,0 0.34375,-0.203125 0,-0.109375 -0.109375,-0.109375 -0.140625,-0.109375 -0.28125,0 -1,0.03125 -1.28125,0.03125 -0.28125,0 -0.984375,-0.03125 -1.28125,-0.03125 -0.078125,0 -0.1875,0 -0.1875,0.203125 0,0.109375 0.09375,0.109375 0.28125,0.109375 0.015625,0 0.203125,0 0.375,0.015625 0.171875,0.03125 0.265625,0.03125 0.265625,0.171875 0,0.03125 0,0.0625 -0.03125,0.1875 L 1.5625,-0.78125 c -0.09375,0.390625 -0.109375,0.46875 -0.90625,0.46875 -0.171875,0 -0.265625,0 -0.265625,0.203125 C 0.390625,0 0.515625,0 0.53125,0 0.8125,0 1.515625,-0.03125 1.796875,-0.03125 2,-0.03125 2.21875,-0.015625 2.4375,-0.015625 2.65625,-0.015625 2.875,0 3.078125,0 3.15625,0 3.28125,0 3.28125,-0.203125 3.28125,-0.3125 3.1875,-0.3125 3,-0.3125 c -0.375,0 -0.640625,0 -0.640625,-0.171875 0,-0.0625 0.015625,-0.109375 0.015625,-0.171875 l 0.6875,-2.734375 h 3.03125 c -0.40625,1.65625 -0.640625,2.609375 -0.6875,2.75 C 5.3125,-0.3125 5.125,-0.3125 4.5,-0.3125 c -0.140625,0 -0.234375,0 -0.234375,0.203125 C 4.265625,0 4.390625,0 4.40625,0 4.6875,0 5.390625,-0.03125 5.671875,-0.03125 5.875,-0.03125 6.09375,-0.015625 6.3125,-0.015625 6.53125,-0.015625 6.75,0 6.953125,0 7.03125,0 7.15625,0 7.15625,-0.203125 7.15625,-0.3125 7.0625,-0.3125 6.875,-0.3125 c -0.359375,0 -0.640625,0 -0.640625,-0.171875 0,-0.0625 0.015625,-0.109375 0.03125,-0.171875 z m 0,0"
           id="id-b68667e8-273d-4e5f-8fbc-4e2380d46722" />
      </g>
    </g>
    <g
       style="fill:#000000;fill-opacity:1;stroke-width:1.34109"
       id="id-b4beb918-f76a-4100-8384-f7b2b1c2ce17"
       transform="matrix(0.38377979,0,0,0.38377979,3.6740642,49.659737)">
      <g
         style="fill:#000000;fill-opacity:1;stroke-width:1.34109"
         id="g1078"
         transform="translate(161.975,136.259)">
        <path
           style="fill:#000000;fill-opacity:1;stroke:none;stroke-width:1.34109"
           d="m 3.03125,-0.5625 c -0.046875,0.140625 -0.109375,0.375 -0.109375,0.40625 0,0.15625 0.125,0.21875 0.234375,0.21875 0.140625,0 0.25,-0.078125 0.28125,-0.140625 0.03125,-0.0625 0.09375,-0.296875 0.125,-0.4375 0.03125,-0.125 0.109375,-0.453125 0.15625,-0.625 0.03125,-0.15625 0.078125,-0.3125 0.109375,-0.46875 0.078125,-0.296875 0.078125,-0.3125 0.21875,-0.53125 C 4.265625,-2.484375 4.625,-2.875 5.15625,-2.875 c 0.390625,0 0.421875,0.3125 0.421875,0.484375 0,0.421875 -0.296875,1.1875 -0.421875,1.484375 -0.0625,0.203125 -0.09375,0.265625 -0.09375,0.375 0,0.375 0.296875,0.59375 0.65625,0.59375 0.703125,0 1,-0.953125 1,-1.0625 0,-0.09375 -0.078125,-0.09375 -0.109375,-0.09375 -0.09375,0 -0.09375,0.046875 -0.125,0.125 C 6.328125,-0.40625 6.015625,-0.125 5.75,-0.125 c -0.15625,0 -0.1875,-0.09375 -0.1875,-0.25 0,-0.15625 0.046875,-0.25 0.171875,-0.5625 0.078125,-0.21875 0.359375,-0.953125 0.359375,-1.34375 0,-0.109375 0,-0.40625 -0.25,-0.609375 -0.125,-0.078125 -0.328125,-0.1875 -0.65625,-0.1875 -0.625,0 -1,0.421875 -1.234375,0.703125 C 3.90625,-2.96875 3.40625,-3.078125 3.046875,-3.078125 2.46875,-3.078125 2.078125,-2.71875 1.875,-2.4375 1.828125,-2.921875 1.421875,-3.078125 1.125,-3.078125 c -0.296875,0 -0.453125,0.21875 -0.546875,0.375 -0.15625,0.265625 -0.25,0.65625 -0.25,0.703125 0,0.078125 0.09375,0.078125 0.125,0.078125 0.09375,0 0.09375,-0.015625 0.140625,-0.203125 0.109375,-0.40625 0.25,-0.75 0.515625,-0.75 0.1875,0 0.234375,0.15625 0.234375,0.34375 0,0.125 -0.0625,0.390625 -0.125,0.578125 -0.046875,0.1875 -0.109375,0.46875 -0.140625,0.625 L 0.84375,-0.4375 c -0.015625,0.09375 -0.0625,0.265625 -0.0625,0.28125 0,0.15625 0.125,0.21875 0.234375,0.21875 0.125,0 0.234375,-0.078125 0.28125,-0.140625 0.03125,-0.0625 0.078125,-0.296875 0.125,-0.4375 0.03125,-0.125 0.109375,-0.453125 0.140625,-0.625 0.046875,-0.15625 0.09375,-0.3125 0.125,-0.46875 0.078125,-0.28125 0.09375,-0.34375 0.296875,-0.625 C 2.171875,-2.515625 2.5,-2.875 3.03125,-2.875 c 0.390625,0 0.40625,0.359375 0.40625,0.484375 0,0.171875 -0.015625,0.265625 -0.125,0.65625 z m 0,0"
           id="id-413150c5-914f-43e0-94a9-7bd841681f34" />
      </g>
      <g
         style="fill:#000000;fill-opacity:1;stroke-width:1.34109"
         id="g1081"
         transform="translate(169.044,136.259)">
        <path
           style="fill:#000000;fill-opacity:1;stroke:none;stroke-width:1.34109"
           d="m 2.9375,-2.65625 c -0.140625,-0.234375 -0.375,-0.421875 -0.71875,-0.421875 -0.890625,0 -1.796875,0.984375 -1.796875,1.984375 0,0.6875 0.453125,1.15625 1.0625,1.15625 0.375,0 0.703125,-0.203125 0.984375,-0.484375 C 2.59375,0 3,0.0625 3.1875,0.0625 c 0.25,0 0.421875,-0.140625 0.546875,-0.359375 0.15625,-0.28125 0.25,-0.671875 0.25,-0.703125 0,-0.09375 -0.09375,-0.09375 -0.109375,-0.09375 -0.109375,0 -0.109375,0.03125 -0.15625,0.21875 C 3.625,-0.53125 3.5,-0.125 3.203125,-0.125 3.03125,-0.125 2.96875,-0.28125 2.96875,-0.46875 c 0,-0.109375 0.0625,-0.375 0.109375,-0.546875 0.046875,-0.1875 0.125,-0.46875 0.15625,-0.625 L 3.375,-2.171875 C 3.421875,-2.359375 3.5,-2.6875 3.5,-2.71875 3.5,-2.875 3.375,-2.9375 3.265625,-2.9375 c -0.125,0 -0.28125,0.078125 -0.328125,0.28125 z M 2.5,-0.875 C 2.453125,-0.671875 2.296875,-0.53125 2.140625,-0.40625 2.078125,-0.34375 1.796875,-0.125 1.5,-0.125 c -0.265625,0 -0.515625,-0.1875 -0.515625,-0.671875 0,-0.375 0.203125,-1.140625 0.375,-1.421875 0.3125,-0.5625 0.671875,-0.65625 0.859375,-0.65625 0.484375,0 0.625,0.53125 0.625,0.609375 0,0.015625 -0.015625,0.078125 -0.015625,0.09375 z m 0,0"
           id="id-845fc10c-fa6d-42ae-98b3-4d560fe2f3b6" />
      </g>
      <g
         style="fill:#000000;fill-opacity:1;stroke-width:1.34109"
         id="g1084"
         transform="translate(173.366,136.259)">
        <path
           style="fill:#000000;fill-opacity:1;stroke:none;stroke-width:1.34109"
           d="M 1.734375,-0.734375 C 1.671875,-0.5 1.4375,-0.125 1.078125,-0.125 c -0.015625,0 -0.234375,0 -0.375,-0.09375 0.28125,-0.09375 0.3125,-0.34375 0.3125,-0.390625 0,-0.15625 -0.125,-0.25 -0.28125,-0.25 -0.203125,0 -0.40625,0.15625 -0.40625,0.421875 0,0.34375 0.390625,0.5 0.734375,0.5 0.328125,0 0.609375,-0.1875 0.78125,-0.484375 C 2.015625,-0.0625 2.390625,0.0625 2.671875,0.0625 c 0.8125,0 1.234375,-0.859375 1.234375,-1.0625 0,-0.09375 -0.09375,-0.09375 -0.109375,-0.09375 -0.109375,0 -0.109375,0.046875 -0.140625,0.125 -0.140625,0.484375 -0.5625,0.84375 -0.953125,0.84375 -0.28125,0 -0.421875,-0.1875 -0.421875,-0.453125 0,-0.1875 0.171875,-0.8125 0.359375,-1.59375 C 2.78125,-2.703125 3.09375,-2.875 3.328125,-2.875 c 0.015625,0 0.21875,0 0.375,0.09375 -0.21875,0.0625 -0.3125,0.265625 -0.3125,0.390625 0,0.140625 0.125,0.25 0.28125,0.25 0.15625,0 0.390625,-0.125 0.390625,-0.421875 0,-0.390625 -0.453125,-0.515625 -0.71875,-0.515625 -0.359375,0 -0.640625,0.234375 -0.78125,0.5 -0.125,-0.28125 -0.453125,-0.5 -0.84375,-0.5 C 0.9375,-3.078125 0.5,-2.21875 0.5,-2 c 0,0.078125 0.09375,0.078125 0.109375,0.078125 0.09375,0 0.09375,-0.015625 0.140625,-0.109375 C 0.921875,-2.578125 1.359375,-2.875 1.703125,-2.875 1.9375,-2.875 2.125,-2.75 2.125,-2.421875 2.125,-2.28125 2.03125,-1.9375 1.96875,-1.6875 Z m 0,0"
           id="id-cf60efbb-797c-46b2-9313-e9d5bbcd3aea" />
      </g>
    </g>
    <path
       id="path1758"
       d="M 114.46559,103.4054 H 61.54892"
       style="fill:none;stroke:#0044aa;stroke-width:0.529167;stroke-linecap:butt;stroke-linejoin:miter;stroke-miterlimit:4;stroke-dasharray:3.175, 3.175;stroke-dashoffset:0;stroke-opacity:1" />
    <path
       style="fill:none;stroke:#0044aa;stroke-width:0.264583;stroke-linecap:butt;stroke-linejoin:miter;stroke-miterlimit:4;stroke-dasharray:1.5875, 1.5875;stroke-dashoffset:0;stroke-opacity:1"
       d="M 114.46559,121.92624 H 61.548915"
       id="path1758-8" />
    <path
       style="fill:none;stroke:#0044aa;stroke-width:0.264583;stroke-linecap:butt;stroke-linejoin:miter;stroke-miterlimit:4;stroke-dasharray:1.5875, 1.5875;stroke-dashoffset:0;stroke-opacity:1"
       d="M 114.46559,140.44707 H 61.548922"
       id="path1758-1" />
    <path
       style="fill:none;stroke:#0044aa;stroke-width:0.529167;stroke-linecap:butt;stroke-linejoin:miter;stroke-miterlimit:4;stroke-dasharray:3.175, 3.175;stroke-dashoffset:0;stroke-opacity:1"
       d="M 114.46559,149.70749 H 61.548918"
       id="path1758-19" />
    <path
       style="fill:none;stroke:#0044aa;stroke-width:0.264583;stroke-linecap:butt;stroke-linejoin:miter;stroke-miterlimit:4;stroke-dasharray:1.5875, 1.5875;stroke-dashoffset:0;stroke-opacity:1"
       d="M 114.46559,158.9679 H 61.54892"
       id="path1758-0" />
    <path
       style="fill:none;stroke:#0044aa;stroke-width:0.264583;stroke-linecap:butt;stroke-linejoin:miter;stroke-miterlimit:4;stroke-dasharray:1.5875, 1.5875;stroke-dashoffset:0;stroke-opacity:1"
       d="M 114.46559,177.48874 H 61.548916"
       id="path1758-4" />
    <path
       style="fill:#0044aa;stroke:#0044aa;stroke-width:0.529167;stroke-linecap:butt;stroke-linejoin:miter;stroke-miterlimit:4;stroke-dasharray:3.175, 3.175;stroke-dashoffset:0;stroke-opacity:1"
       d="M 114.46559,196.00957 H 61.548917"
       id="path1758-9" />
    <path
       id="path1872-0"
       style="fill:#0044aa;fill-opacity:1;stroke:#0044aa;stroke-width:0.264583;stroke-linecap:round;stroke-linejoin:round;stroke-miterlimit:4;stroke-dasharray:none;stroke-dashoffset:0;stroke-opacity:1"
       d="M 114.46556,201.30122 H 61.548894 v -2.34251 c 0.628385,0.69453 0.924642,0.87283 1.537631,0.87281 0.612989,-6e-5 1.260792,-0.33682 1.552363,-0.87695 0.291648,0.54029 1.021564,0.87703 1.635554,0.87695 0.597479,-1.1e-4 1.149411,-0.31933 1.447461,-0.83716 0.298048,0.51783 0.849969,0.83705 1.447459,0.83716 0.606851,-8e-5 1.16591,-0.32928 1.46037,-0.85989 0.29446,0.53061 0.85353,0.85981 1.460379,0.85989 0.60334,0 1.15979,-0.32534 1.455721,-0.85111 0.295929,0.52577 0.85239,0.85111 1.45573,0.85111 0.611989,-2.2e-4 1.174869,-0.3351 1.467091,-0.87281 0.292309,0.53787 0.85543,0.87278 1.467609,0.87281 0.61381,-1.1e-4 1.178111,-0.33682 1.469679,-0.87695 0.291661,0.54029 0.85621,0.87703 1.470202,0.87695 0.597479,-1.1e-4 1.149398,-0.31933 1.447448,-0.83716 0.298051,0.51783 0.849982,0.83705 1.447462,0.83716 0.606848,-8e-5 1.165918,-0.32928 1.460378,-0.85989 0.29446,0.53061 0.853522,0.85981 1.46037,0.85989 0.601552,-8e-5 1.1566,-0.32359 1.453143,-0.84697 0.296547,0.52338 0.851588,0.84689 1.453149,0.84697 0.61217,-3e-5 1.17529,-0.33494 1.467599,-0.87281 0.29232,0.53787 0.85543,0.87278 1.46761,0.87281 0.613809,-1.1e-4 1.17811,-0.33682 1.469681,-0.87695 0.291568,0.54013 0.855879,0.87684 1.469678,0.87695 0.597482,-1.1e-4 1.149411,-0.31933 1.447462,-0.83716 0.29804,0.51783 0.849968,0.83705 1.447458,0.83716 0.607031,10e-5 1.166342,-0.32912 1.460892,-0.85989 0.294367,0.53045 0.853187,0.85962 1.459857,0.85989 0.60344,-8e-5 1.15993,-0.32565 1.45572,-0.85163 0.2958,0.52598 0.85228,0.85155 1.45573,0.85163 0.61218,-3e-5 1.1753,-0.33494 1.46761,-0.87281 0.29231,0.53787 0.85543,0.87278 1.46761,0.87281 0.6138,-1.1e-4 1.17811,-0.33682 1.46968,-0.87695 0.29156,0.54013 0.85587,0.87684 1.46967,0.87695 0.59749,-1.1e-4 1.14941,-0.31933 1.44746,-0.83716 0.29805,0.51783 0.91613,0.83705 1.51361,0.83716 0.60703,10e-5 1.06634,-0.35556 1.43014,-0.85989 z"
       sodipodi:nodetypes="ccczcscccccccccscccccccccccscccccccccscc" />
  </g>
</svg>
