<?xml version="1.0" encoding="UTF-8" standalone="no"?>
<svg
   xmlns:dc="http://purl.org/dc/elements/1.1/"
   xmlns:cc="http://creativecommons.org/ns#"
   xmlns:rdf="http://www.w3.org/1999/02/22-rdf-syntax-ns#"
   xmlns:svg="http://www.w3.org/2000/svg"
   xmlns="http://www.w3.org/2000/svg"
   xmlns:sodipodi="http://sodipodi.sourceforge.net/DTD/sodipodi-0.dtd"
   xmlns:inkscape="http://www.inkscape.org/namespaces/inkscape"
   width="14mm"
   height="14mm"
   viewBox="0 0 14 14"
   version="1.1"
   id="svg8"
   inkscape:version="1.0.1 (3bc2e813f5, 2020-09-07)"
   sodipodi:docname="noiseSimplex1DVar.svg">
  <defs
     id="defs2">
    <rect
       x="92.604164"
       y="128.32292"
       width="47.625"
       height="42.711311"
       id="rect837" />
  </defs>
  <sodipodi:namedview
     id="base"
     pagecolor="#ffffff"
     bordercolor="#666666"
     borderopacity="1.0"
     inkscape:pageopacity="0.0"
     inkscape:pageshadow="2"
     inkscape:zoom="5.6"
     inkscape:cx="56.373132"
     inkscape:cy="43.109086"
     inkscape:document-units="mm"
     inkscape:current-layer="text835"
     inkscape:document-rotation="0"
     showgrid="false"
     inkscape:window-width="2560"
     inkscape:window-height="1387"
     inkscape:window-x="1072"
     inkscape:window-y="220"
     inkscape:window-maximized="1"
     inkscape:pagecheckerboard="false"
     fit-margin-top="0"
     fit-margin-left="0"
     fit-margin-right="0"
     fit-margin-bottom="0" />
  <metadata
     id="metadata5">
    <rdf:RDF>
      <cc:Work
         rdf:about="">
        <dc:format>image/svg+xml</dc:format>
        <dc:type
           rdf:resource="http://purl.org/dc/dcmitype/StillImage" />
        <dc:title />
      </cc:Work>
    </rdf:RDF>
  </metadata>
  <g
     inkscape:label="Layer 1"
     inkscape:groupmode="layer"
     id="layer1"
     transform="translate(-0.03826875,0.04262483)">
    <g
       aria-label="Δu Δt"
       transform="matrix(3.554554,0,0,5.1747247,-389.04443,-855.23986)"
       id="text835"
       style="font-style:normal;font-weight:normal;font-size:10.5833px;line-height:13.2292px;font-family:sans-serif;white-space:pre;shape-inside:url(#rect837);fill:#000000;fill-opacity:1;stroke:none;stroke-width:0.0919785;stroke-miterlimit:4;stroke-dasharray:none;stroke-opacity:1">
      <rect
         style="fill:none;fill-opacity:1;stroke:none;stroke-width:0.0919785;stroke-miterlimit:4;stroke-dasharray:none;stroke-opacity:1"
         id="rect2819"
         width="3.8468797"
         height="2.6126919"
         x="109.50621"
         y="165.31041"
         ry="0.43141052"
         rx="0.38877648" />
      <rect
         style="fill:none;stroke:#000000;stroke-width:0.0918669;stroke-miterlimit:4;stroke-dasharray:none;stroke-opacity:1"
         id="rect897"
         width="3.8468783"
         height="2.6126859"
         x="109.50621"
         y="165.31041"
         rx="0.38877639"
         ry="0.42228159" />
      <g
         aria-label="Simplex
 1D
Var"
         transform="scale(1.206566,0.82879842)"
         id="text40"
         style="font-style:normal;font-weight:normal;font-size:0.7403px;line-height:1.25;font-family:sans-serif;fill:#000000;fill-opacity:1;stroke:none;stroke-width:0.0056743">
        <path
           d="m 91.247835,200.015 v 0.0712 q -0.04157,-0.0199 -0.07844,-0.0296 -0.03687,-0.01 -0.07121,-0.01 -0.05964,0 -0.09218,0.0231 -0.03217,0.0231 -0.03217,0.0658 0,0.0358 0.02133,0.0542 0.02169,0.0181 0.08169,0.0293 l 0.0441,0.009 q 0.08169,0.0155 0.120371,0.0549 0.03904,0.039 0.03904,0.10482 0,0.0784 -0.05277,0.11893 -0.05241,0.0405 -0.153989,0.0405 -0.03832,0 -0.08169,-0.009 -0.04301,-0.009 -0.08928,-0.0257 v -0.0752 q 0.04446,0.0249 0.08712,0.0376 0.04265,0.0127 0.08386,0.0127 0.06254,0 0.09651,-0.0246 0.03398,-0.0246 0.03398,-0.0701 0,-0.0398 -0.02458,-0.0622 -0.02422,-0.0224 -0.07989,-0.0336 l -0.04446,-0.009 q -0.08169,-0.0163 -0.118202,-0.051 -0.03651,-0.0347 -0.03651,-0.0965 0,-0.0716 0.05025,-0.11278 0.05061,-0.0412 0.139168,-0.0412 0.03795,0 0.07735,0.007 0.0394,0.007 0.08061,0.0206 z"
           style="font-size:0.7403px;text-align:center;text-anchor:middle;stroke-width:0.0056743"
           id="path84" />
        <path
           d="m 91.391341,200.13212 h 0.06651 v 0.40485 h -0.06651 z m 0,-0.1576 h 0.06651 v 0.0842 h -0.06651 z"
           style="font-size:0.7403px;text-align:center;text-anchor:middle;stroke-width:0.0056743"
           id="path86" />
        <path
           d="m 91.912226,200.20984 q 0.02494,-0.0448 0.05964,-0.0662 0.0347,-0.0213 0.08169,-0.0213 0.06326,0 0.0976,0.0445 0.03434,0.0441 0.03434,0.1258 v 0.24435 h -0.06687 v -0.24219 q 0,-0.0582 -0.0206,-0.0864 -0.0206,-0.0282 -0.0629,-0.0282 -0.05169,0 -0.08169,0.0343 -0.03,0.0343 -0.03,0.0936 v 0.22881 h -0.06687 v -0.24219 q 0,-0.0585 -0.0206,-0.0864 -0.0206,-0.0282 -0.06362,-0.0282 -0.05097,0 -0.08097,0.0347 -0.03,0.0343 -0.03,0.0933 v 0.22881 h -0.06687 v -0.40485 h 0.06687 v 0.0629 q 0.02277,-0.0372 0.05458,-0.0549 0.03181,-0.0177 0.07555,-0.0177 0.0441,0 0.07483,0.0224 0.03109,0.0224 0.04591,0.0651 z"
           style="font-size:0.7403px;text-align:center;text-anchor:middle;stroke-width:0.0056743"
           id="path88" />
        <path
           d="m 92.382504,200.47624 v 0.21472 h -0.06687 v -0.55884 h 0.06687 v 0.0615 q 0.02097,-0.0361 0.05277,-0.0535 0.03217,-0.0177 0.07663,-0.0177 0.07374,0 0.119648,0.0586 0.04627,0.0586 0.04627,0.15399 0,0.0954 -0.04627,0.15399 -0.04591,0.0585 -0.119648,0.0585 -0.04446,0 -0.07663,-0.0173 -0.03181,-0.0177 -0.05277,-0.0539 z m 0.226283,-0.14133 q 0,-0.0734 -0.03036,-0.11495 -0.03,-0.0419 -0.08278,-0.0419 -0.05278,0 -0.08314,0.0419 -0.03,0.0416 -0.03,0.11495 0,0.0734 0.03,0.11531 0.03036,0.0416 0.08314,0.0416 0.05278,0 0.08278,-0.0416 0.03036,-0.0419 0.03036,-0.11531 z"
           style="font-size:0.7403px;text-align:center;text-anchor:middle;stroke-width:0.0056743"
           id="path90" />
        <path
           d="m 92.788079,199.97452 h 0.06651 v 0.56245 h -0.06651 z"
           style="font-size:0.7403px;text-align:center;text-anchor:middle;stroke-width:0.0056743"
           id="path92" />
        <path
           d="m 93.34005,200.31792 v 0.0325 h -0.305807 q 0.0043,0.0687 0.04121,0.10483 0.03723,0.0358 0.103382,0.0358 0.03832,0 0.0741,-0.009 0.03615,-0.009 0.07157,-0.0282 v 0.0629 q -0.03579,0.0152 -0.07338,0.0231 -0.03759,0.008 -0.07627,0.008 -0.09688,0 -0.153627,-0.0564 -0.05639,-0.0564 -0.05639,-0.15254 0,-0.0994 0.0535,-0.1576 0.05386,-0.0586 0.144951,-0.0586 0.08169,0 0.129047,0.0528 0.04771,0.0524 0.04771,0.14278 z m -0.06651,-0.0195 q -7.23e-4,-0.0546 -0.03073,-0.0871 -0.02964,-0.0325 -0.0788,-0.0325 -0.05567,0 -0.08928,0.0314 -0.03326,0.0315 -0.03832,0.0886 z"
           style="font-size:0.7403px;text-align:center;text-anchor:middle;stroke-width:0.0056743"
           id="path94" />
        <path
           d="m 93.772735,200.13212 -0.146397,0.197 0.153988,0.20785 h -0.07844 l -0.11784,-0.15905 -0.117841,0.15905 h -0.07844 l 0.157241,-0.21182 -0.143867,-0.19303 h 0.07844 l 0.107358,0.14423 0.107358,-0.14423 z"
           style="font-size:0.7403px;text-align:center;text-anchor:middle;stroke-width:0.0056743"
           id="path96" />
        <path
           d="m 92.017053,201.4009 h 0.119287 v -0.41172 l -0.12977,0.026 v -0.0665 l 0.129047,-0.026 h 0.07302 v 0.47823 h 0.119286 v 0.0614 h -0.310868 z"
           style="font-size:0.7403px;text-align:center;text-anchor:middle;stroke-width:0.0056743"
           id="path98" />
        <path
           d="m 92.541914,200.98267 v 0.41967 h 0.0882 q 0.111696,0 0.163387,-0.0506 0.05205,-0.0506 0.05205,-0.15978 0,-0.10844 -0.05205,-0.15868 -0.05169,-0.0506 -0.163387,-0.0506 z m -0.07302,-0.06 h 0.150012 q 0.15688,0 0.23026,0.0654 0.07338,0.0651 0.07338,0.20387 0,0.13953 -0.07374,0.20496 -0.07374,0.0654 -0.229898,0.0654 h -0.150012 z"
           style="font-size:0.7403px;text-align:center;text-anchor:middle;stroke-width:0.0056743"
           id="path100" />
        <path
           d="m 91.936444,202.38772 -0.20604,-0.53968 h 0.07627 l 0.170977,0.45437 0.171339,-0.45437 h 0.07591 l -0.205679,0.53968 z"
           style="font-size:0.7403px;text-align:center;text-anchor:middle;stroke-width:0.0056743"
           id="path102" />
        <path
           d="m 92.427327,202.18421 q -0.08061,0 -0.111696,0.0184 -0.03109,0.0184 -0.03109,0.0629 0,0.0354 0.02313,0.0564 0.0235,0.0206 0.06362,0.0206 0.05531,0 0.08856,-0.039 0.03362,-0.0394 0.03362,-0.10447 v -0.0148 z m 0.132661,-0.0275 v 0.23098 h -0.06651 v -0.0615 q -0.02277,0.0369 -0.05675,0.0546 -0.03398,0.0173 -0.08314,0.0173 -0.06217,0 -0.09904,-0.0347 -0.03651,-0.0351 -0.03651,-0.0936 0,-0.0683 0.04555,-0.10302 0.04591,-0.0347 0.136637,-0.0347 h 0.09326 v -0.007 q 0,-0.0459 -0.03036,-0.0709 -0.03,-0.0253 -0.08459,-0.0253 -0.0347,0 -0.0676,0.008 -0.03289,0.008 -0.06326,0.0249 v -0.0615 q 0.03651,-0.0141 0.07085,-0.021 0.03434,-0.007 0.06687,-0.007 0.08784,0 0.131215,0.0456 0.04338,0.0455 0.04338,0.13808 z"
           style="font-size:0.7403px;text-align:center;text-anchor:middle;stroke-width:0.0056743"
           id="path104" />
        <path
           d="m 92.931584,202.04504 q -0.01121,-0.006 -0.02458,-0.009 -0.01301,-0.003 -0.02892,-0.003 -0.05639,0 -0.08675,0.0369 -0.03,0.0365 -0.03,0.10519 v 0.21327 h -0.06687 v -0.40485 h 0.06687 v 0.0629 q 0.02097,-0.0369 0.05458,-0.0546 0.03362,-0.0181 0.08169,-0.0181 0.0069,0 0.01518,0.001 0.0083,7.2e-4 0.01844,0.003 z"
           style="font-size:0.7403px;text-align:center;text-anchor:middle;stroke-width:0.0056743"
           id="path106" />
      </g>
    </g>
  </g>
</svg>
